<?xml version="1.0" encoding="UTF-8"?><svg id="Layer_1" xmlns="http://www.w3.org/2000/svg" xmlns:xlink="http://www.w3.org/1999/xlink" viewBox="0 0 185 75"><defs><style>.cls-1,.cls-2{fill:none;}.cls-3{fill:#ec0a7a;}.cls-4{fill:#b81f8b;}.cls-5{fill:#241f20;}.cls-6{fill:#19171c;}.cls-7{fill:#58b847;}.cls-8{fill:#73be44;}.cls-2{clip-path:url(#clippath);}</style><clipPath id="clippath"><rect class="cls-1" width="185" height="75"/></clipPath></defs><g class="cls-2"><path class="cls-5" d="m135.84,22c1.72.25,2.58.9,2.58,1.93,0,.91-.81,2.63-2.42,5.16v.32c2.62-.97,4.17-1.45,4.67-1.45.43.11.64.43.64.97v.48c0,.21-1.67.91-5,2.1-1.3.86-2.26,1.29-2.9,1.29h-1.13c-.27,0-.43-.21-.48-.64,3.12-3.32,4.67-5.8,4.67-7.42v-.97h-.97c-.56,0-1.36.54-2.42,1.61-.56,0-.88-.16-.97-.48v-.64c1.16-1.5,2.4-2.26,3.71-2.26Z"/><path class="cls-5" d="m143.72,23.93h.32c2.36.43,3.55,1.5,3.55,3.22-.65,3.76-1.83,5.64-3.55,5.64-1.23,0-2.09-1.67-2.58-5,.33-2.58,1.08-3.87,2.26-3.87Zm-.64,3.22v1.77c.14,1.5.62,2.26,1.45,2.26,1.18-.77,1.77-2.06,1.77-3.87v-.64c-.64-.86-1.45-1.29-2.42-1.29-.37,0-.64.59-.81,1.77Z"/><path class="cls-5" d="m151.99,22c1.72.25,2.58.9,2.58,1.93,0,.91-.81,2.63-2.42,5.16v.32c2.62-.97,4.17-1.45,4.67-1.45.43.11.64.43.64.97v.48c0,.21-1.67.91-5,2.1-1.3.86-2.26,1.29-2.9,1.29h-1.13c-.27,0-.43-.21-.48-.64,3.12-3.32,4.67-5.8,4.67-7.42v-.97h-.97c-.56,0-1.36.54-2.42,1.61-.56,0-.88-.16-.97-.48v-.64c1.16-1.5,2.4-2.26,3.71-2.26Z"/><path class="cls-5" d="m162.04,20.97c.64.25.97.47.97.64v.48c0,.79-.22,1.65-.64,2.58h1.13c1.46,0,2.48.48,3.06,1.45v.16c0,2.67-2.36,5.09-7.09,7.25l-.64.16c-.28,0-.6-.32-.97-.97,0-.54.97-.91,2.9-1.13,2.69-2.01,4.03-3.51,4.03-4.51v-.16l-.48-.48h-.81c-1.1,0-2.39.48-3.87,1.45-.64-.22-.97-.65-.97-1.29,1.42-1.09,2.17-2.16,2.26-3.22v-.16h-.32c-.77.75-1.3,1.13-1.61,1.13-.43,0-.64-.27-.64-.81h-.16c.98-1.72,2.27-2.58,3.87-2.58Z"/><path class="cls-3" d="m127.18,38.23h0c-.43-.96-1.17-1.96-2.19-2.99-.41-.42-1.53-1.39-3.41-2.97-1.95-1.65-3.13-2.73-3.5-3.21-.23-.3-.34-.61-.34-.93,0-.29.14-.54.44-.8.32-.27.74-.4,1.27-.4,1.15,0,2.32.82,3.49,2.45l.3.42,4.35-3.83-.3-.35c-1.38-1.6-2.69-2.73-3.89-3.35-1.22-.62-2.52-.94-3.86-.94-2.1,0-3.89.68-5.33,2.03-1.44,1.36-2.18,3.01-2.18,4.91,0,1.32.44,2.65,1.3,3.95.84,1.27,2.69,3.07,5.5,5.37,1.42,1.16,2.35,2.03,2.76,2.58.37.49.55.99.55,1.46,0,.5-.23.93-.69,1.33-.49.42-1.07.62-1.8.62-1.41,0-2.7-1.06-3.84-3.15l-.24-.43-4.89,2.95.2.39c1,1.98,2.22,3.45,3.63,4.39,1.42.94,3.11,1.42,5.02,1.42,2.45,0,4.46-.73,6-2.18,1.54-1.45,2.32-3.32,2.32-5.54,0-1.14-.22-2.21-.66-3.18Z"/><polygon class="cls-6" points="36.22 51.84 37.06 51.84 37.73 53.6 38.44 51.84 39.28 51.84 39.78 55.13 38.93 55.13 38.69 53.24 38.68 53.24 37.89 55.13 37.55 55.13 36.79 53.24 36.79 53.24 36.51 55.13 35.66 55.13 36.22 51.84"/><path class="cls-6" d="m43.61,53.42c0,1.07-.76,1.81-1.82,1.81s-1.82-.75-1.82-1.81c0-.99.87-1.69,1.82-1.69s1.82.7,1.82,1.69m-2.75,0c0,.57.42.98.93.98s.93-.41.93-.98c0-.45-.42-.87-.93-.87s-.93.41-.93.87"/><polygon class="cls-6" points="45.31 55.13 44.46 55.13 44.46 52.56 43.75 52.56 43.75 51.84 46.02 51.84 46.02 52.56 45.31 52.56 45.31 55.13"/><polygon class="cls-6" points="48.42 53.11 48.42 51.84 49.27 51.84 49.27 55.13 48.42 55.13 48.42 53.78 47.18 53.78 47.18 55.13 46.33 55.13 46.33 51.84 47.18 51.84 47.18 53.11 48.42 53.11"/><polygon class="cls-6" points="50.68 52.56 50.68 53.11 51.65 53.11 51.65 53.84 50.68 53.84 50.68 54.4 51.7 54.4 51.7 55.13 49.83 55.13 49.83 51.84 51.7 51.84 51.7 52.56 50.68 52.56"/><path class="cls-6" d="m54.96,55.13h-1.06l-.81-1.27h0v1.27h-.86v-3.29h1.28c.65,0,1.14.31,1.14,1.01,0,.46-.25.85-.72.93l1.03,1.35Zm-1.88-1.81h.08c.28,0,.59-.05.59-.41s-.31-.41-.59-.41h-.08v.82Z"/><polygon class="cls-6" points="57.99 55.13 57.14 55.13 57.14 52.56 56.43 52.56 56.43 51.84 58.7 51.84 58.7 52.56 57.99 52.56 57.99 55.13"/><path class="cls-6" d="m62.47,53.42c0,1.07-.76,1.81-1.82,1.81s-1.82-.75-1.82-1.81c0-.99.87-1.69,1.82-1.69s1.82.7,1.82,1.69m-2.74,0c0,.57.42.98.93.98s.93-.41.93-.98c0-.45-.42-.87-.93-.87s-.93.41-.93.87"/><polygon class="cls-6" points="62.87 51.84 63.72 51.84 65.29 53.85 65.3 53.85 65.3 51.84 66.15 51.84 66.15 55.13 65.3 55.13 63.73 53.11 63.72 53.11 63.72 55.13 62.87 55.13 62.87 51.84"/><path class="cls-6" d="m69.99,53.29c0,.48-.04.89-.33,1.3-.32.45-.81.64-1.36.64-1.03,0-1.75-.7-1.75-1.74s.73-1.77,1.79-1.77c.68,0,1.2.3,1.48.92l-.81.34c-.12-.32-.37-.52-.71-.52-.56,0-.86.54-.86,1.04s.31,1.03.87,1.03c.37,0,.65-.19.69-.57h-.7v-.67h1.69Z"/><path class="cls-6" d="m73.23,51.84v1.85c0,.42-.02.84-.35,1.16-.27.27-.7.36-1.09.36s-.81-.1-1.09-.36c-.32-.32-.34-.74-.34-1.16v-1.85h.86v1.73c0,.43.03.89.58.89s.58-.47.58-.89v-1.73h.85Z"/><polygon class="cls-6" points="74.62 52.56 74.62 53.11 75.59 53.11 75.59 53.84 74.62 53.84 74.62 54.4 75.64 54.4 75.64 55.13 73.77 55.13 73.77 51.84 75.64 51.84 75.64 52.56 74.62 52.56"/><polygon class="cls-6" points="78.52 54.4 79.54 54.4 79.54 55.13 77.66 55.13 77.66 51.84 78.52 51.84 78.52 54.4"/><path class="cls-6" d="m80.65,54.56l-.22.57h-.91l1.27-3.29h.93l1.24,3.29h-.91l-.21-.57h-1.18Zm.6-1.7h0l-.35,1.05h.71l-.35-1.05Z"/><polygon class="cls-6" points="83.22 51.84 84.07 51.84 85.64 53.85 85.65 53.85 85.65 51.84 86.5 51.84 86.5 55.13 85.65 55.13 84.08 53.11 84.07 53.11 84.07 55.13 83.22 55.13 83.22 51.84"/><path class="cls-6" d="m90.34,53.29c0,.48-.04.89-.34,1.3-.32.45-.81.64-1.36.64-1.03,0-1.75-.7-1.75-1.74s.73-1.77,1.78-1.77c.68,0,1.2.3,1.48.92l-.81.34c-.12-.32-.36-.52-.71-.52-.56,0-.85.54-.85,1.04s.3,1.03.87,1.03c.37,0,.65-.19.69-.57h-.7v-.67h1.7Z"/><path class="cls-6" d="m93.58,51.84v1.85c0,.42-.02.84-.35,1.16-.27.27-.71.36-1.09.36s-.81-.1-1.09-.36c-.33-.32-.34-.74-.34-1.16v-1.85h.85v1.73c0,.43.03.89.58.89s.58-.47.58-.89v-1.73h.85Z"/><path class="cls-6" d="m94.95,54.56l-.23.57h-.91l1.27-3.29h.94l1.24,3.29h-.91l-.21-.57h-1.18Zm.6-1.7h0l-.35,1.05h.71l-.35-1.05Z"/><path class="cls-6" d="m100.8,53.29c0,.48-.05.89-.34,1.3-.32.45-.81.64-1.36.64-1.03,0-1.75-.7-1.75-1.74s.72-1.77,1.78-1.77c.68,0,1.2.3,1.48.92l-.81.34c-.12-.32-.37-.52-.71-.52-.56,0-.85.54-.85,1.04s.3,1.03.87,1.03c.37,0,.65-.19.69-.57h-.7v-.67h1.7Z"/><polygon class="cls-6" points="102.04 52.56 102.04 53.11 103.01 53.11 103.01 53.84 102.04 53.84 102.04 54.4 103.06 54.4 103.06 55.13 101.19 55.13 101.19 51.84 103.06 51.84 103.06 52.56 102.04 52.56"/><path class="cls-6" d="m105.39,52.69c-.16-.13-.36-.22-.57-.22-.16,0-.36.09-.36.27s.23.27.38.31l.22.06c.46.14.81.37.81.9,0,.33-.08.66-.34.89-.26.22-.6.31-.93.31-.42,0-.82-.14-1.15-.37l.37-.69c.21.19.47.34.76.34.2,0,.41-.1.41-.33s-.33-.32-.52-.37c-.54-.15-.89-.29-.89-.93,0-.67.47-1.1,1.13-1.1.33,0,.74.1,1.03.27l-.34.66Z"/><path class="cls-6" d="m109.57,52.69c-.15-.13-.36-.22-.57-.22-.16,0-.37.09-.37.27s.23.27.38.31l.22.06c.46.14.81.37.81.9,0,.33-.08.66-.34.89-.26.22-.6.31-.93.31-.42,0-.82-.14-1.16-.37l.37-.69c.21.19.46.34.76.34.2,0,.42-.1.42-.33s-.34-.32-.52-.37c-.54-.15-.89-.29-.89-.93,0-.67.47-1.1,1.13-1.1.33,0,.73.1,1.03.27l-.34.66Z"/><polygon class="cls-6" points="110.09 51.84 111.11 51.84 111.73 52.73 112.34 51.84 113.37 51.84 112.16 53.55 112.16 55.13 111.3 55.13 111.3 53.55 110.09 51.84"/><polygon class="cls-6" points="113.92 51.84 114.76 51.84 115.43 53.6 116.14 51.84 116.99 51.84 117.48 55.13 116.63 55.13 116.39 53.24 116.38 53.24 115.59 55.13 115.25 55.13 114.5 53.24 114.49 53.24 114.22 55.13 113.37 55.13 113.92 51.84"/><path class="cls-6" d="m117.84,51.84h1.31c.71,0,1.19.32,1.19,1.08s-.42,1.12-1.16,1.12h-.48v1.09h-.86v-3.29Zm.86,1.51h.15c.31,0,.62,0,.62-.4s-.29-.42-.62-.42h-.15v.82Z"/><path class="cls-6" d="m124.2,53.42c0,1.07-.77,1.81-1.82,1.81s-1.82-.75-1.82-1.81c0-.99.87-1.69,1.82-1.69s1.82.7,1.82,1.69m-2.75,0c0,.57.42.98.93.98s.93-.41.93-.98c0-.45-.42-.87-.93-.87s-.93.41-.93.87"/><path class="cls-6" d="m126.39,52.69c-.16-.13-.36-.22-.57-.22-.16,0-.37.09-.37.27s.23.27.38.31l.22.06c.46.14.81.37.81.9,0,.33-.08.66-.34.89-.26.22-.6.31-.93.31-.41,0-.82-.14-1.16-.37l.37-.69c.22.19.47.34.76.34.2,0,.41-.1.41-.33s-.33-.32-.52-.37c-.54-.15-.89-.29-.89-.93,0-.67.47-1.1,1.13-1.1.33,0,.74.1,1.03.27l-.34.66Z"/><rect class="cls-6" x="127.27" y="51.84" width=".86" height="3.29"/><path class="cls-6" d="m131.54,51.84v1.85c0,.42-.02.84-.34,1.16-.27.27-.71.36-1.09.36s-.81-.1-1.09-.36c-.33-.32-.34-.74-.34-1.16v-1.85h.85v1.73c0,.43.03.89.58.89s.58-.47.58-.89v-1.73h.85Z"/><polygon class="cls-6" points="132.44 51.84 133.28 51.84 133.95 53.6 134.65 51.84 135.5 51.84 136 55.13 135.15 55.13 134.91 53.24 134.9 53.24 134.11 55.13 133.77 55.13 133.01 53.24 133.01 53.24 132.73 55.13 131.88 55.13 132.44 51.84"/><path class="cls-3" d="m36.53,56.95c.51.02.83.03,1.26.03.48,0,.86,0,1.3-.04l-.03,1.43c.22-.01.43-.03.63-.05v.44c-.2-.02-.41-.04-.64-.04l-.02.96c.19,0,.42-.02.52-.04v.42c-.07,0-.2-.02-.53-.02-.02.46-.12.54-.71.68-.02-.17-.08-.27-.28-.44.5.06.59.03.6-.24h-1.19c-.45,0-.76.01-1.15.05l.1-1.36c-.21,0-.4.02-.58.04v-.44c.19.02.39.04.61.05l.1-1.41Zm.25,1.76l-.06.97h1.94l.02-.97h-1.9Zm1.9-.35l.02-1.05h-1.83l-.07,1.05h1.88Zm-.92.51c.1.15.2.33.31.53l-.36.18c-.06-.18-.17-.37-.3-.54l.35-.17Zm.02-1.35c.1.15.2.31.31.49l-.34.24c-.09-.2-.2-.39-.32-.56l.36-.18Z"/><path class="cls-3" d="m41.02,60.3c-.14.15-.19.21-.25.31-.08-.13-.19-.27-.27-.35.11-.12.12-.15.12-.4v-1.42c-.26,0-.37,0-.49.02v-.4c.12.01.26.02.44.02s.34,0,.45-.02c-.02.14-.04.36-.04.56v1.26c.16-.16.28-.32.41-.5.03.14.11.3.18.36l-.54.56Zm-.26-2.58c-.09-.23-.21-.43-.39-.65l.34-.2c.13.21.26.39.43.61l-.38.23Zm.67-.45v-.4c.29.03.66.05,1.19.05s.92-.01,1.2-.05v.4c-.29-.03-.66-.05-1.2-.05l-.08.44c.57,0,.78,0,1.01-.03l-.09.89c.26,0,.52-.02.62-.04v.4c-.15-.03-.36-.04-1.43-.04-.75,0-1.19.01-1.38.04v-.4c.15.02.4.04.74.04l.1-.54c-.19.01-.37.03-.56.04v-.39c.17.02.32.03.62.03,0,0,.05-.27.08-.43-.35,0-.62.02-.84.04m.66,3.1v.33h-.39c.03-.21.04-.36.04-.57v-.65c0-.16,0-.24-.02-.34.18.02.33.02.98.02s.8,0,.97-.02c-.02.08-.02.17-.02.34v.54c0,.2,0,.37.04.57h-.39v-.22h-1.2Zm1.2-.89h-1.2v.58h1.2v-.58Zm-.11-1.51h-.69l-.1.54h.74l.05-.54Z"/><path class="cls-3" d="m44.64,59.66v-.41c.43.03.93.04,1.69.04v-.3c.27-.1.47-.2.61-.29h-1.01c-.27,0-.47,0-.62.01v-.33c.34.02.56.03,1.15.03.73,0,.99,0,1.15-.03v.39c-.15,0-.34.06-.89.36v.15c.69,0,1.16-.02,1.56-.04v.41c-.4-.03-.87-.04-1.56-.05v.64c0,.26-.09.33-.77.44-.01-.14-.06-.28-.15-.44.46.04.53-.01.53-.14v-.49c-.76,0-1.27.02-1.69.05m3.63-2.04v.81h-.36v-.47h-2.88v.5h-.36v-.85c.24.02.56.02.99.02h1.34c.2-.29.44-.75.5-.93.12.09.29.17.39.21.07.03.07.05-.02.09-.05.03-.21.21-.52.63.4,0,.69,0,.92-.02m-2.88-.07c-.06-.17-.18-.42-.26-.55l.36-.16c.09.15.21.38.3.57l-.39.14Zm.94-.11c-.02-.17-.08-.46-.13-.61l.38-.08c.05.15.11.39.15.59l-.41.09Z"/><path class="cls-3" d="m49.43,59.99c-.04-.14-.13-.35-.21-.5.83-.17,1.76-.47,2.34-.69-.02.14-.01.24.02.39-.55.15-1.47.49-2.15.8m3.01-2.56l-.11,2.5c-.02.4-.13.61-1.01.72,0-.12-.09-.35-.2-.5.63.07.8-.02.82-.4l.1-2.32c-1.57,0-2.04,0-2.59.03v-.42c.38.03.88.04,1.53.04.71,0,1.23-.01,1.51-.03-.03.13-.04.25-.04.38m-1.72,1.36c-.2-.27-.57-.57-.89-.76l.26-.31c.31.21.62.45.93.74l-.31.33Z"/><path class="cls-3" d="m54.1,60.37c-.15.14-.22.22-.26.29-.07-.12-.17-.26-.27-.36.13-.13.18-.29.18-.48v-1.38c-.28,0-.42.01-.54.03v-.41c.12.03.28.04.47.04s.35-.02.47-.04c-.03.15-.05.35-.05.55v1.3c.17-.15.36-.34.51-.51.03.14.07.26.13.35l-.65.62Zm-.14-2.65c-.1-.25-.22-.49-.4-.73l.39-.19c.12.23.28.49.41.68l-.4.24Zm.64.93c-.09-.08-.23-.15-.36-.19.35-.26.68-.63.91-1.05.13-.23.23-.53.28-.73.1.04.35.11.48.12.07,0,.08.04.02.08-.03.02-.07.05-.1.08.29.59.73.94,1.39,1.1-.12.13-.2.29-.24.43-.6-.29-1.09-.73-1.34-1.24-.32.57-.64.99-1.03,1.39m1.75-.15c.06.08.26.25.34.31.07.04.05.1-.04.09-.08,0-.25.07-1.15.58v.57c0,.19.03.21.44.21s.56-.1.62-.63c.11.15.26.27.39.3-.23.61-.37.66-.9.66-.87,0-.91-.04-.91-.47v-1.47c0-.24-.01-.37-.03-.48.11.02.32.04.42.03.07,0,.08.03.02.09-.05.04-.06.07-.06.14v.7c.39-.21.67-.43.85-.64"/><path class="cls-3" d="m57.59,58.27v-.4c.14.01.31.02.55.03v-.59c0-.19-.02-.42-.03-.48.13.02.26.03.42.03.07,0,.08.04.02.08-.04.02-.06.07-.06.11v.86c.19,0,.36-.01.47-.03v.4c-.11-.01-.28-.02-.47-.02v1.22c.28-.09.46-.16.61-.22-.03.13-.03.26,0,.41-.57.17-.95.32-1.36.53-.03-.15-.1-.34-.17-.49.15-.01.39-.06.58-.12v-1.33c-.24,0-.41.01-.55.03m2.69.24c-.57,0-.91.01-1.21.04v-.41c.3.03.65.04,1.21.04s.92-.01,1.21-.04v.41c-.29-.03-.64-.04-1.21-.04m.21.75l.33-.15c.17.34.47.91.66,1.25l-.41.22c-.03-.1-.08-.21-.12-.34l-1.02.13c-.25.04-.51.1-.65.16-.03-.12-.09-.27-.17-.41.19-.1.26-.19.46-.58.15-.31.28-.68.37-1,.16.1.35.17.42.18.11.02.11.06,0,.12-.09.04-.13.1-.7,1.23l1.16-.11c-.11-.28-.25-.55-.34-.69m-.22-1.89c-.41,0-.68,0-.89.03v-.42c.22.03.48.04.89.04s.68-.01.89-.04v.42c-.22-.02-.48-.03-.89-.03"/><path class="cls-8" d="m65.59,57.54c-.11-.06-.32-.15-.59-.15-.4,0-.56.23-.56.44,0,.28.19.42.61.61.54.23.79.53.79.99,0,.56-.42.98-1.16.98-.31,0-.64-.09-.81-.2l.11-.42c.18.11.45.2.72.2.4,0,.62-.21.62-.51,0-.28-.17-.46-.57-.62-.49-.2-.83-.5-.83-.95,0-.53.42-.93,1.09-.93.32,0,.55.08.7.15l-.12.42Z"/><path class="cls-8" d="m66.6,57.58c-.17,0-.29-.13-.29-.29s.12-.3.3-.3.29.12.29.3-.11.29-.3.29m.25,2.77h-.5v-2.41h.5v2.41Z"/><path class="cls-8" d="m70.8,60.36h-.5v-1.37c0-.4-.13-.67-.44-.67-.23,0-.47.21-.47.56v1.48h-.49v-1.45c0-.34-.13-.59-.42-.59-.23,0-.48.2-.48.58v1.46h-.5v-1.73c0-.27,0-.47-.02-.67h.44l.02.35h.01c.12-.2.34-.41.7-.41.31,0,.54.17.64.44h0c.16-.27.4-.44.74-.44s.75.25.75,1v1.45Z"/><path class="cls-8" d="m71.89,58.32c.16-.27.43-.42.76-.42.54,0,.95.48.95,1.22,0,.88-.51,1.28-1.02,1.28-.29,0-.52-.14-.64-.33h0v1.26h-.51v-2.6c0-.31,0-.56-.02-.77h.44l.03.36h0Zm.04,1.07c0,.43.3.62.54.62.39,0,.6-.36.6-.86,0-.46-.2-.84-.59-.84-.3,0-.56.28-.56.64v.44Z"/><path class="cls-8" d="m76.17,59.14c0,.9-.58,1.27-1.13,1.27-.62,0-1.1-.46-1.1-1.24s.5-1.27,1.13-1.27,1.09.5,1.09,1.23m-1.11-.85c-.43,0-.6.46-.6.88,0,.47.22.87.59.87s.59-.4.59-.88c0-.4-.16-.87-.59-.87"/><path class="cls-8" d="m77.86,58.41c-.1-.06-.26-.13-.46-.13-.22,0-.35.13-.35.3s.11.25.4.37c.4.16.61.38.61.73,0,.46-.35.74-.9.74-.25,0-.49-.07-.65-.16l.11-.37c.12.08.34.16.55.16.27,0,.4-.13.4-.31s-.1-.28-.39-.41c-.43-.17-.62-.41-.62-.69,0-.4.33-.72.83-.72.23,0,.44.07.57.14l-.11.37Z"/><path class="cls-8" d="m78.81,57.58c-.17,0-.29-.13-.29-.29s.12-.3.3-.3.29.12.29.3-.11.29-.3.29m.25,2.77h-.5v-2.41h.5v2.41Z"/><path class="cls-8" d="m81.66,59.67c0,.27.01.5.02.69h-.44l-.03-.35h-.01c-.1.17-.34.4-.73.4-.41,0-.78-.26-.78-1.02v-1.43h.51v1.35c0,.41.12.69.45.69.23,0,.5-.18.5-.55v-1.48h.51v1.71Z"/><path class="cls-8" d="m85.6,60.36h-.5v-1.37c0-.4-.13-.67-.44-.67-.23,0-.47.21-.47.56v1.48h-.5v-1.45c0-.34-.13-.59-.42-.59-.23,0-.48.2-.48.58v1.46h-.5v-1.73c0-.27,0-.47-.02-.67h.44l.02.35h.01c.12-.2.33-.41.7-.41.3,0,.53.17.63.44h0c.16-.27.4-.44.74-.44s.75.25.75,1v1.45Z"/><path class="cls-8" d="m88.66,58.57c.35.09.67.37.67.83,0,.35-.17.56-.29.67-.22.21-.59.32-1.14.32-.3,0-.52-.02-.67-.04v-3.28c.19-.04.48-.07.78-.07,1.02,0,1.19.5,1.19.83s-.2.6-.55.73h0Zm-.61-.16c.4,0,.65-.22.65-.53,0-.4-.32-.5-.64-.5-.16,0-.27.01-.33.03v1.01h.31Zm-.31,1.57c.08.02.17.02.31.02.4,0,.75-.17.75-.61s-.38-.6-.76-.6h-.29v1.19Z"/><path class="cls-8" d="m91.52,59.78c0,.21,0,.42.03.57h-.46l-.04-.28h-.01c-.13.19-.37.33-.67.33-.45,0-.71-.33-.71-.7,0-.6.52-.89,1.34-.89,0-.18,0-.54-.48-.54-.21,0-.43.07-.58.17l-.11-.34c.17-.11.45-.2.78-.2.71,0,.9.47.9.98v.91Zm-.49-.64c-.4,0-.86.08-.86.5,0,.27.17.38.35.38.28,0,.5-.21.5-.49v-.4Z"/><path class="cls-8" d="m94.14,60.36h-.51v-1.4c0-.34-.12-.63-.46-.63-.25,0-.51.2-.51.57v1.47h-.51v-3.5h.51v1.42h0c.16-.25.43-.38.69-.38.36,0,.78.25.78,1v1.45Z"/><path class="cls-8" d="m96.45,59.78c0,.21,0,.42.04.57h-.46l-.04-.28h-.01c-.13.19-.37.33-.67.33-.45,0-.71-.33-.71-.7,0-.6.52-.89,1.34-.89,0-.18,0-.54-.48-.54-.21,0-.43.07-.58.17l-.11-.34c.17-.11.46-.2.78-.2.71,0,.9.47.9.98v.91Zm-.49-.64c-.4,0-.85.08-.85.5,0,.27.17.38.35.38.28,0,.5-.21.5-.49v-.4Z"/><path class="cls-8" d="m98.28,58.41c-.1-.06-.26-.13-.46-.13-.23,0-.35.13-.35.3s.11.25.4.37c.4.16.61.38.61.73,0,.46-.35.74-.9.74-.25,0-.49-.07-.66-.16l.11-.37c.12.08.34.16.55.16.27,0,.4-.13.4-.31s-.1-.28-.39-.41c-.43-.17-.61-.41-.61-.69,0-.4.33-.72.83-.72.24,0,.44.07.57.14l-.11.37Z"/><path class="cls-8" d="m100.66,59.78c0,.21,0,.42.04.57h-.46l-.04-.28h-.02c-.13.19-.37.33-.67.33-.45,0-.71-.33-.71-.7,0-.6.52-.89,1.34-.89,0-.18,0-.54-.48-.54-.21,0-.43.07-.58.17l-.1-.34c.17-.11.45-.2.78-.2.71,0,.9.47.9.98v.91Zm-.49-.64c-.4,0-.86.08-.86.5,0,.27.17.38.35.38.27,0,.5-.21.5-.49v-.4Z"/><rect class="cls-8" x="102.3" y="57.02" width=".51" height="3.34"/><path class="cls-8" d="m103.98,58.29c.14-.24.39-.39.73-.39.55,0,.93.48.93,1.22,0,.88-.51,1.29-1.01,1.29-.31,0-.55-.13-.71-.41h-.01l-.02.36h-.43c.01-.16.02-.42.02-.64v-2.86h.51v1.43h0Zm0,1.12c0,.3.22.59.55.59.39,0,.6-.34.6-.86,0-.45-.2-.83-.6-.83-.32,0-.56.31-.56.63v.47Z"/><path class="cls-8" d="m108.09,59.67c0,.27.01.5.02.69h-.45l-.02-.35h-.02c-.1.17-.34.4-.72.4-.41,0-.77-.26-.77-1.02v-1.43h.5v1.35c0,.41.12.69.45.69.23,0,.5-.18.5-.55v-1.48h.51v1.71Z"/><path class="cls-8" d="m110.72,60.36h-.51v-1.41c0-.34-.11-.63-.46-.63-.25,0-.51.2-.51.59v1.45h-.5v-1.73c0-.26-.01-.47-.02-.67h.44l.03.35h.02c.11-.2.37-.41.73-.41s.79.25.79.99v1.47Z"/><path class="cls-8" d="m113.36,59.72c0,.22,0,.47.02.64h-.45l-.03-.38h-.01c-.13.25-.39.43-.73.43-.54,0-.96-.49-.96-1.23,0-.82.47-1.28,1-1.28.31,0,.53.14.63.33h.01v-1.37h.5v2.86Zm-.5-.79c0-.39-.25-.62-.53-.62-.39,0-.6.38-.6.86s.21.83.59.83c.33,0,.54-.29.54-.62v-.44Z"/><path class="cls-8" d="m115.69,59.78c0,.21,0,.42.04.57h-.46l-.03-.28h-.02c-.13.19-.37.33-.67.33-.45,0-.7-.33-.7-.7,0-.6.52-.89,1.34-.89,0-.18,0-.54-.48-.54-.21,0-.43.07-.59.17l-.11-.34c.17-.11.45-.2.77-.2.71,0,.91.47.91.98v.91Zm-.49-.64c-.4,0-.86.08-.86.5,0,.27.17.38.35.38.28,0,.5-.21.5-.49v-.4Z"/><path class="cls-4" d="m120.5,59.01v.32c0,.27-.09.5-.27.68-.18.18-.41.27-.68.28-.27,0-.5-.09-.68-.27-.18-.18-.27-.41-.27-.68,0-.17.06-.32.18-.44.12-.12.27-.18.45-.19v-.95h1.9v.31h-.64v.64h.32c.17,0,.32.06.44.19.13.13.19.27.19.44v.16c0,.36-.12.66-.36.9-.24.24-.54.37-.9.37h-.64c-.15,0-.29.04-.42.12-.14.09-.22.21-.22.35v.13h-.31v-.13c0-.23.1-.42.31-.58.19-.14.4-.21.64-.21h.64c.26,0,.49-.09.67-.28.18-.19.27-.41.27-.67v-.16c0-.08-.03-.15-.1-.22-.07-.06-.14-.1-.22-.1h-.32Zm-.95.96c.17,0,.32-.06.45-.19.13-.13.19-.28.19-.45v-.32h-.96c-.09,0-.16.03-.22.1-.06.06-.09.14-.09.22,0,.18.06.33.18.45.12.12.28.19.45.19m.64-1.91h-.64v.64h.64v-.64Zm3.19,2.22h-.32v-2.22h-.79v2.22h-.32v-2.54h2.06v.32h-.63v2.22Zm2.24,0v-.47c0,.12-.05.23-.14.33-.1.09-.21.14-.33.14-.17,0-.32-.06-.45-.18-.13-.13-.19-.28-.19-.45v-1.9h.31v1.91c0,.09.03.16.09.22.06.06.14.09.23.1.12,0,.23-.04.33-.14.1-.1.14-.21.14-.33v-1.75h.31v2.23h1.11v-2.23h.31v2.54h-1.74Zm.34-3.83c.08,0,.15.03.22.09.06.07.1.14.1.22,0,.08-.03.15-.09.22-.07.06-.14.1-.22.1-.07,0-.14-.03-.22-.09-.06-.06-.09-.14-.09-.23,0-.08.03-.16.09-.22.07-.06.14-.09.22-.1m2.37,2.77c.14.29.34.5.6.63-.1-.15-.15-.32-.16-.52,0-.24.07-.45.21-.64.15-.2.35-.31.58-.31.23,0,.42.1.57.31.14.19.21.4.21.64,0,.26-.09.49-.28.67-.18.18-.4.28-.67.28-.47,0-.85-.21-1.17-.61-.27-.36-.41-.79-.42-1.29,0-.53.18-.98.55-1.35.37-.37.82-.56,1.35-.56.44,0,.81.15,1.12.46.31.31.46.69.46,1.12v2.22h-.31v-2.22c0-.36-.12-.66-.36-.9-.24-.24-.54-.36-.91-.37-.45,0-.82.15-1.12.46-.3.3-.46.68-.46,1.13,0,.3.06.59.19.85m1.59-.32c-.09-.14-.21-.22-.35-.22-.15,0-.27.07-.36.22-.08.13-.12.27-.12.42s.04.29.12.42c.09.14.22.21.36.22.14,0,.26-.07.35-.22.08-.12.12-.27.12-.42s-.04-.29-.12-.42m2.88,1.05v-1.59c0-.17.06-.32.18-.44.12-.12.27-.19.45-.19.27,0,.49.09.67.27.18.18.27.41.27.68v.64c0,.26-.09.49-.27.67-.18.18-.41.28-.67.28h-1.74v-2.54h.31v2.22h.8Zm.31,0h.32c.17,0,.32-.06.44-.19.13-.13.19-.28.19-.45v-.64c0-.17-.06-.32-.19-.45-.12-.12-.27-.19-.45-.19-.08,0-.16.03-.22.1-.06.07-.1.14-.1.23v1.59Zm3.09.31h-.31v-2.22h-.8v2.22h-.31v-2.54h2.05v.31h-.63v2.22Z"/><path class="cls-4" d="m118.98,61.42h-.43v-.19c0-.25.11-.46.33-.62.2-.15.43-.22.67-.22h.64c.25,0,.46-.09.63-.26.17-.17.26-.38.26-.63v-.16c0-.07-.03-.13-.08-.18-.06-.05-.11-.08-.18-.08h-.26v.26c0,.29-.1.53-.29.72-.19.19-.43.29-.72.29h-.02c-.28,0-.51-.1-.7-.29-.19-.2-.29-.44-.29-.72,0-.19.07-.35.2-.48.12-.11.27-.18.43-.2v-.96h2.02v.43h-.64v.52h.26c.18,0,.35.07.48.21.14.13.21.3.21.48v.16c0,.37-.13.69-.38.94-.25.25-.57.38-.94.38h-.64c-.14,0-.27.04-.38.11-.13.08-.19.18-.19.3v.19Zm-.31-.11h.19v-.08c0-.16.08-.3.25-.4.13-.09.28-.13.44-.13h.64c.34,0,.63-.11.86-.35.23-.23.35-.52.35-.86v-.16c0-.15-.05-.29-.17-.4-.12-.11-.25-.17-.4-.17h-.38v-.76h.64v-.19h-1.79v.95h-.06c-.16,0-.3.06-.41.17-.11.11-.16.24-.16.4,0,.26.08.47.25.64.17.17.37.25.62.25.27,0,.48-.09.66-.26.17-.17.25-.38.25-.64v-.37h.38c.1,0,.18.04.26.11.08.07.11.16.11.26v.16c0,.28-.1.52-.29.72-.19.2-.43.29-.71.29h-.64c-.22,0-.43.07-.6.2-.19.14-.29.32-.29.53v.07Zm6.47-.96c-.18,0-.34-.07-.48-.2-.14-.14-.21-.3-.21-.49v-1.96h.42v1.96c0,.07.02.13.08.18.06.05.12.08.19.08h0c.11,0,.2-.04.29-.13.09-.09.13-.18.13-.29v-1.81h.43v2.23h1v-2.23h.42v2.65h-1.85v-.21s-.03.03-.05.05c-.1.1-.23.15-.37.16h0Zm-.57-2.54v1.84c0,.16.06.29.18.41.11.11.24.17.4.17v.06-.06c.12,0,.22-.05.3-.13.08-.08.12-.17.12-.28-.02.02-.03.04-.05.05-.1.11-.22.16-.36.16-.12,0-.2-.04-.28-.11-.08-.07-.11-.16-.11-.26v-1.85h-.2Zm1.11,2.42h1.62v-2.42h-.2v2.23h-1.23v-2.23h-.2v1.69c0,.11-.04.22-.11.31h.11v.42Zm10.57.11h-.42v-2.22h-.68v2.22h-.43v-2.65h2.17v.43h-.63v2.22Zm-.31-.11h.19v-2.23h.63v-.19h-1.94v2.42h.19v-2.23h.92v2.23Zm-2.52.11h-1.8v-2.65h.43v2.22h.69v-1.53c0-.19.07-.35.2-.49.13-.13.29-.2.48-.21h.02c.28,0,.51.1.7.29.19.19.29.44.29.72v.64c0,.28-.1.52-.29.71-.19.2-.43.29-.71.29Zm-1.68-.11h1.68c.25,0,.46-.09.63-.26.17-.17.26-.38.26-.63v-.64c0-.26-.09-.46-.26-.64-.17-.17-.37-.25-.62-.25-.17,0-.3.06-.42.17-.11.11-.17.24-.17.4v1.65h-.92v-2.22h-.2v2.42Zm-.38.11h-.43v-2.28c0-.34-.12-.63-.35-.86-.23-.23-.52-.35-.87-.35h0c-.43,0-.8.15-1.08.44-.29.29-.44.66-.45,1.09,0,.29.06.57.19.83.1.2.24.37.4.49-.04-.11-.06-.23-.07-.36,0-.25.08-.48.23-.68.16-.22.37-.33.62-.33h0c.25,0,.46.11.62.34.15.2.22.43.22.68,0,.28-.1.52-.29.71-.19.19-.43.29-.71.29-.48,0-.89-.21-1.21-.64-.28-.37-.43-.81-.43-1.32,0-.54.19-1.01.57-1.39.38-.38.85-.57,1.39-.57.46,0,.84.16,1.16.48.32.32.48.72.48,1.17v2.28Zm-.31-.11h.19v-2.16c0-.42-.15-.78-.44-1.08-.3-.3-.65-.44-1.07-.44-.52,0-.96.19-1.32.54-.36.35-.54.79-.54,1.3,0,.48.14.91.4,1.25.3.39.68.59,1.12.59.25,0,.46-.09.63-.26.17-.17.26-.38.26-.63,0-.22-.07-.43-.2-.61-.14-.19-.31-.29-.51-.29-.23,0-.4.1-.55.29-.14.18-.2.38-.2.61,0,.19.05.35.14.49l.12.18-.2-.1c-.26-.14-.47-.36-.62-.65-.14-.27-.21-.56-.2-.88,0-.46.17-.85.48-1.16.31-.32.7-.47,1.15-.47.39,0,.71.13.96.38.25.25.38.57.38.94v2.16Zm-7.6.11h-.43v-2.22h-.68v2.22h-.43v-2.65h2.18v.43h-.63v2.22Zm-.32-.11h.2v-2.22h.63v-.2h-1.94v2.42h.2v-2.22h.91v2.22Zm-3.56-.2h-.02c-.19,0-.36-.07-.49-.21-.14-.13-.2-.3-.2-.49,0-.1.04-.19.11-.26.08-.07.16-.11.26-.11h1.02v.37c0,.19-.07.36-.21.49-.13.14-.29.21-.48.21Zm-.33-.96c-.07,0-.13.03-.18.08-.05.05-.08.11-.08.18,0,.16.05.3.16.41.11.11.25.17.41.17h0c.17,0,.29-.05.41-.17.12-.12.17-.25.17-.41v-.26h-.9Zm14.19.96h-.37v-1.64c0-.1.04-.19.11-.27.08-.08.17-.12.26-.12h0c.19,0,.35.07.49.21.14.13.2.3.2.49v.64c0,.19-.07.35-.21.49-.14.14-.3.21-.49.21Zm-.26-.12h.26c.16,0,.29-.05.41-.17.11-.12.17-.25.17-.4v-.64c0-.16-.06-.29-.17-.41-.11-.11-.25-.17-.41-.17-.07,0-.12.03-.18.08-.06.06-.08.12-.08.19v1.53Zm-3.59.11h0c-.18,0-.31-.09-.42-.24-.09-.13-.13-.28-.13-.45s.04-.32.13-.46c.1-.16.24-.24.4-.24h.01c.16,0,.3.09.4.24.09.14.13.29.13.45s-.05.31-.13.45c-.1.16-.23.24-.39.24Zm-.02-1.33v.06c-.12,0-.22.06-.3.19-.08.12-.11.25-.11.39s.04.27.11.39c.08.12.18.19.31.19h0c.13,0,.22-.06.3-.19.08-.12.11-.25.11-.39s-.04-.27-.11-.39c-.08-.13-.18-.19-.31-.19v-.06Zm-9.31.06h-.76v-.76h.76v.76Zm-.64-.12h.53v-.52h-.53v.52Zm6.34-1.5c-.08,0-.16-.03-.25-.1-.08-.08-.11-.16-.11-.27,0-.1.04-.19.11-.26.07-.07.16-.11.26-.11h0c.11,0,.19.04.26.11.08.08.11.16.12.26,0,.1-.04.19-.11.26-.08.07-.16.11-.26.11h-.01Zm.02-.63c-.08,0-.14.03-.19.08-.05.05-.08.11-.08.18,0,.08.03.13.08.18.06.05.12.07.17.07v.06-.06c.08,0,.13-.03.19-.08.05-.05.08-.11.07-.17,0-.07-.03-.13-.08-.19-.05-.05-.1-.08-.16-.08Z"/><path class="cls-4" d="m138.43,60.28h-1.11v-2.54h.31v2.22h.8v-1.59c0-.26.12-.45.36-.56-.14-.17-.21-.35-.21-.54,0-.22.07-.41.23-.56.15-.16.34-.23.56-.23h.16c.27,0,.5.09.68.28.18.18.28.41.28.68v2.85h-.32v-2.85c0-.17-.06-.32-.19-.45-.13-.12-.28-.19-.45-.19h-.16c-.13,0-.23.05-.33.14-.09.09-.14.2-.14.33,0,.18.11.35.35.5.22.04.4.15.55.32.15.18.22.37.22.59v.64c0,.26-.09.49-.27.67-.19.18-.41.28-.68.28h-.32c0,.08.03.16.1.22.07.07.14.1.22.1h.47v.31h-.47c-.21,0-.31.05-.32.16,0,.13-.05.24-.15.34-.09.1-.2.14-.32.14h-.16c-.17,0-.32-.06-.45-.19-.12-.13-.19-.28-.19-.45v-.16h.31v.16c0,.09.03.16.1.22.06.06.14.09.22.09h.16c.09,0,.16-.03.22-.09.06-.06.09-.14.1-.22,0-.1.11-.15.32-.16-.13,0-.24-.05-.33-.14-.09-.09-.14-.21-.14-.33m.31-.31h.32c.17,0,.32-.06.45-.19.13-.13.19-.28.19-.45v-.64c0-.17-.06-.32-.19-.44-.12-.12-.27-.19-.45-.19-.08,0-.16.03-.22.1-.06.07-.1.14-.1.22v1.59Z"/><path class="cls-4" d="m138.27,61.61h-.16c-.18,0-.35-.07-.49-.21-.14-.14-.21-.3-.21-.49v-.22h.43v.22c0,.07.02.13.08.18.05.05.11.08.19.08h.16c.07,0,.13-.02.18-.08.05-.05.08-.11.08-.18,0-.08.04-.13.12-.17-.04-.02-.08-.05-.11-.09-.09-.09-.14-.2-.16-.31h-1.11v-2.65h.43v2.22h.69v-1.53c0-.26.11-.46.34-.58-.12-.16-.18-.34-.18-.53,0-.23.08-.44.25-.6.17-.17.37-.25.6-.25h.16c.28,0,.52.1.72.29.2.2.29.44.29.72v2.91h-.44v-2.91c0-.15-.06-.29-.17-.4-.11-.12-.25-.17-.41-.17h-.16c-.11,0-.21.04-.29.13-.08.08-.13.18-.13.29,0,.16.1.31.31.45.23.04.42.16.57.34.15.18.23.4.23.63v.64c0,.28-.1.52-.29.71-.19.2-.44.29-.72.29h-.25s.03.08.07.12c.05.05.11.08.18.08h.53v.43h-.53c-.17,0-.26.03-.26.1,0,.14-.06.27-.16.37-.1.11-.23.16-.37.16Zm-.74-.8v.1c0,.16.06.29.17.41.11.11.25.17.4.17h.16c.11,0,.2-.04.28-.13.08-.09.12-.18.13-.3,0-.14.13-.21.37-.21h.41v-.2h-.41c-.1,0-.19-.04-.26-.12-.08-.08-.11-.17-.11-.26v-.06h.37c.25,0,.46-.09.63-.26.17-.17.26-.38.26-.63v-.64c0-.21-.06-.39-.2-.56-.14-.16-.31-.27-.51-.3h-.02c-.25-.17-.38-.36-.37-.56,0-.14.06-.27.16-.37.11-.1.23-.16.37-.16h.16c.19,0,.35.07.49.21.14.14.21.3.21.48v2.79h.2v-2.79c0-.26-.09-.46-.26-.64-.17-.17-.39-.26-.64-.26h-.16c-.2,0-.38.07-.52.22-.15.14-.22.31-.22.52,0,.18.07.35.19.51l.05.06-.07.03c-.22.11-.33.28-.33.51v1.65h-.92v-2.22h-.19v2.42h1.11v.05c0,.11.05.21.13.3.08.08.18.12.29.12v.12c-.12,0-.26.02-.26.1,0,.1-.04.19-.11.26-.07.07-.16.11-.26.11h-.16c-.1,0-.19-.04-.27-.11-.08-.07-.11-.16-.11-.26v-.1h-.2Zm1.52-.78h-.37v-1.65c0-.1.04-.19.11-.26.08-.08.16-.11.26-.11h0c.19,0,.35.07.49.2.14.13.2.3.2.48v.64c0,.19-.07.35-.2.49-.14.14-.3.21-.49.21Zm-.26-.12h.26c.16,0,.29-.05.4-.17.11-.12.17-.25.17-.4v-.64c0-.16-.06-.29-.17-.4-.11-.11-.25-.17-.41-.17-.07,0-.12.03-.18.08-.05.05-.08.11-.08.18v1.53Z"/><path class="cls-4" d="m142.88,59.83c.09.09.2.14.34.14.12,0,.24-.05.33-.14.09-.1.14-.21.14-.33,0-.12-.04-.23-.14-.33-.1-.1-.21-.15-.33-.15h-.32v.32c0,.27-.09.5-.27.68-.18.18-.41.27-.68.27s-.49-.09-.67-.28c-.19-.18-.28-.41-.28-.67,0-.18.06-.33.19-.45.12-.12.27-.19.45-.19v-.95h2.06v.32h-.79v.63h.32c.22,0,.4.08.56.23.15.15.23.34.24.56,0,.21-.07.4-.23.55-.15.15-.34.23-.56.24-.23,0-.41-.08-.56-.24l.22-.21Zm-.93.14c.17,0,.32-.06.44-.19.13-.13.19-.28.19-.45v-.32h-.95c-.09,0-.16.04-.22.1-.06.06-.09.14-.09.23,0,.17.06.32.18.44.12.12.27.19.45.19m.63-1.9h-.63v.63h.63v-.63Zm1.82.95c0-.32.08-.59.24-.84.18-.28.41-.42.71-.43h.01c.26,0,.46.15.62.44v-.44h.95c-.1-.11-.15-.27-.16-.47v-.02c0-.21.08-.39.23-.54.16-.16.34-.23.56-.23h.16c.23,0,.43.11.58.31.14.19.22.4.22.64v2.85h-.32v-2.85c0-.15-.04-.29-.13-.42-.09-.14-.21-.21-.35-.21h-.16c-.06,0-.12.01-.18.04-.06.03-.11.06-.15.1-.04.04-.08.09-.11.15-.03.06-.04.12-.04.18v.02c0,.11.05.22.14.31.09.1.2.14.33.14h.32v.31h-.47v2.22h-.31v-2.22h-.79v2.22h-.31v-1.27c0-.23-.05-.44-.14-.62-.12-.22-.29-.33-.5-.33s-.38.11-.49.33c-.09.17-.14.38-.15.62.01-.03.03-.07.06-.1.03-.04.06-.07.1-.1.04-.03.07-.05.12-.07.04-.02.09-.03.12-.03.1,0,.18.03.25.08.07.05.12.12.17.19.05.08.08.16.1.25.02.09.03.18.04.26v.02c0,.18-.06.35-.17.5-.12.17-.27.26-.46.27h-.02c-.18,0-.33-.09-.45-.26-.11-.16-.17-.34-.17-.53v-.48Zm.62,0c-.09,0-.17.06-.23.17-.05.09-.08.2-.08.31,0,.11.03.22.07.31.06.1.14.16.25.17h0c.07,0,.12-.04.18-.11.06-.07.09-.13.1-.21.01-.05.02-.1.02-.15v-.03c0-.1-.03-.2-.08-.28-.06-.11-.14-.17-.24-.17h-.01Z"/><path class="cls-4" d="m143.2,60.34c-.23,0-.42-.09-.58-.25-.18.16-.41.25-.68.25s-.52-.1-.71-.29c-.2-.19-.29-.43-.29-.71,0-.19.07-.36.2-.49.12-.12.27-.19.43-.2v-.95h2.18v.43h-.79v.52h.26c.23,0,.43.09.6.25.16.16.25.37.25.6,0,.23-.08.43-.25.59-.17.17-.37.25-.6.26h-.02Zm-.46-.3c.13.12.28.18.46.18v.06-.06c.21,0,.39-.08.53-.22.14-.14.22-.32.21-.51,0-.21-.08-.38-.22-.52-.14-.15-.31-.22-.51-.22h-.37v-.75h.79v-.2h-1.95v.95h-.06c-.16,0-.3.06-.41.17-.11.11-.17.25-.17.41,0,.25.08.46.26.63.17.17.38.26.63.26s.47-.09.64-.26c.17-.17.26-.38.26-.64v-.38h.37c.14,0,.26.05.37.16.11.11.16.24.16.37,0,.14-.06.26-.16.37-.11.11-.23.16-.37.16-.13,0-.24-.04-.33-.12l-.14.13Zm.14-.3l.04.04c.08.08.18.12.3.12.11,0,.2-.04.29-.13.08-.09.13-.18.13-.29,0-.11-.04-.2-.13-.29-.09-.09-.18-.13-.29-.13h-.26v.27c0,.15-.03.29-.08.42h0Zm5.7.6h-.44v-2.91c0-.14-.04-.27-.11-.39-.08-.12-.19-.19-.31-.19h-.16c-.05,0-.1.01-.16.04-.05.02-.09.05-.13.09-.04.04-.07.09-.09.14-.03.05-.04.1-.04.15v.02c0,.1.04.19.12.27.08.08.18.13.29.13h.37v.43h-.47v2.22h-.43v-2.22h-.68v2.22h-.43v-1.33c0-.22-.05-.42-.14-.59-.11-.2-.26-.3-.44-.3s-.34.1-.44.3c-.06.11-.1.24-.12.39.01-.02.03-.03.04-.04.04-.03.09-.06.13-.08.05-.02.1-.03.15-.03.11,0,.21.03.29.09.07.06.13.13.18.21.05.08.08.17.1.27.02.1.03.18.04.27v.03c0,.19-.06.37-.18.53-.13.19-.31.28-.51.29h-.02c-.2,0-.37-.1-.5-.29-.12-.17-.17-.36-.17-.56v-.48c0-.33.08-.62.24-.87.19-.3.44-.45.76-.46h.02c.22,0,.41.1.56.3v-.3h.89c-.06-.11-.09-.25-.1-.42v-.02c0-.22.08-.42.25-.58.17-.17.37-.25.6-.25h.16c.25,0,.46.11.63.33.15.2.23.42.23.68v2.91Zm-.32-.11h.2v-2.79c0-.23-.07-.43-.2-.61-.14-.19-.32-.29-.53-.29h-.16c-.2,0-.37.07-.52.22-.14.14-.21.31-.21.5v.02c0,.19.05.34.14.43l.09.1h-1.02v.39l-.11.03c-.15-.28-.34-.41-.57-.41h-.01c-.28,0-.5.14-.66.4-.15.23-.23.5-.23.81v.48c0,.18.05.35.15.5.11.16.24.24.4.24h.02c.17,0,.3-.08.41-.24.11-.14.16-.3.16-.47v-.02c0-.08-.01-.16-.03-.25-.02-.09-.05-.16-.09-.24-.04-.07-.09-.13-.15-.17-.06-.04-.13-.07-.22-.07-.03,0-.07,0-.1.02-.04.02-.07.04-.11.06-.03.02-.06.05-.09.09-.02.03-.04.06-.05.09l-.12-.02c0-.25.06-.47.15-.65.12-.24.3-.37.54-.37s.42.12.55.36c.1.18.15.4.15.65v1.22h.2v-2.23h.91v2.23h.2v-2.23h.48v-.19h-.26c-.14,0-.27-.06-.37-.16-.1-.1-.15-.22-.15-.35v-.02c0-.07.02-.14.05-.2.03-.06.07-.12.12-.17.04-.05.1-.09.17-.12.07-.03.13-.04.2-.04h.16c.16,0,.3.08.4.24.09.13.13.28.13.45v2.79Zm-6.3-.2h-.02c-.19,0-.35-.07-.49-.21-.14-.13-.2-.29-.2-.49,0-.1.04-.19.11-.26.08-.08.16-.11.26-.11h1.01v.38c0,.18-.07.35-.2.49-.13.14-.29.21-.47.21Zm-.33-.96c-.07,0-.13.03-.18.08-.05.05-.08.11-.08.18,0,.16.05.29.17.4.12.11.25.17.41.17h0c.16,0,.29-.06.4-.17.12-.12.17-.25.17-.4v-.27h-.89Zm3.41.96c-.14,0-.24-.08-.31-.2-.05-.1-.08-.21-.08-.33s.03-.23.09-.33c.07-.13.17-.2.28-.2h.01c.12,0,.22.08.29.2.06.09.09.2.09.31v.03c0,.05,0,.11-.02.17-.02.08-.05.16-.11.23-.07.08-.15.13-.23.13Zm-.02-1.01v.06c-.07,0-.13.05-.18.15-.05.09-.07.18-.07.28,0,.1.02.2.06.28.05.09.11.13.2.14.05,0,.1-.03.15-.09.05-.05.08-.12.09-.18.01-.05.02-.1.02-.14v-.03c0-.09-.02-.17-.07-.25-.05-.09-.11-.14-.19-.15v-.06Zm-2.39-.26h-.75v-.75h.75v.75Zm-.63-.12h.52v-.52h-.52v.52Z"/><path class="cls-4" d="m151.71,58.06c-.12,0-.25.03-.37.08.24.26.37.55.37.87v.48c0,.19-.06.37-.17.52-.13.17-.28.26-.47.27-.19,0-.34-.08-.47-.26-.11-.16-.17-.33-.17-.53v-.48c0-.34.12-.63.36-.87-.15-.05-.27-.08-.36-.08h-.16c-.26,0-.49.09-.67.28-.18.18-.27.4-.27.67,0-.08.03-.16.09-.22.06-.06.14-.1.22-.1.18,0,.33.09.46.27.11.16.17.33.17.52,0,.19-.05.37-.17.52-.12.17-.28.26-.46.27-.19,0-.34-.08-.46-.26-.11-.16-.17-.34-.17-.53v-.48c0-.36.12-.66.36-.9.24-.24.54-.36.9-.36h.16c.21,0,.43.07.63.19.2-.12.41-.19.63-.19h1.27v.32h-.48v2.22h-.32v-2.22h-.47Zm-1.82,1.12c-.06-.11-.14-.17-.24-.17-.1,0-.18.06-.24.17-.05.09-.08.2-.08.31,0,.11.02.22.07.31.06.11.14.17.25.17.07,0,.13-.03.19-.11.05-.06.08-.13.1-.21.01-.05.02-.11.02-.15,0-.11-.02-.21-.08-.31m1.51-.17c0-.27-.11-.5-.33-.69-.21.17-.31.4-.31.69v.48c0,.11.02.22.07.31.06.11.14.17.25.17.07,0,.13-.03.19-.11.05-.07.09-.13.1-.21.01-.06.02-.11.02-.15v-.48Zm-.31-2.55c.08,0,.15.03.22.09.06.07.1.14.1.22,0,.08-.03.15-.1.22-.06.06-.14.1-.22.1-.07,0-.14-.03-.22-.09-.06-.06-.09-.14-.09-.23,0-.08.03-.16.09-.22.06-.06.14-.09.22-.1"/><path class="cls-4" d="m151.07,60.34c-.21,0-.38-.1-.51-.29-.12-.17-.18-.36-.18-.56v-.48c0-.32.1-.6.31-.84-.11-.03-.19-.05-.25-.05h-.16c-.25,0-.46.08-.63.26-.1.1-.17.2-.21.32.06-.04.13-.07.21-.07h0c.2,0,.37.1.51.29.12.17.18.36.18.56,0,.2-.06.39-.18.56-.13.19-.3.28-.51.29h0c-.21,0-.38-.1-.51-.29-.12-.17-.18-.36-.18-.56v-.48c0-.38.13-.69.38-.94.25-.25.57-.38.94-.38h.16c.21,0,.43.06.63.18.2-.12.42-.18.63-.18h1.33v.43h-.48v2.22h-.43v-2.22h-.42c-.09,0-.18.02-.27.05.22.26.33.54.33.84v.48c0,.2-.06.39-.18.56-.13.19-.31.29-.51.29h0Zm-.79-2.33h.16c.09,0,.21.03.37.08l.09.03-.06.06c-.23.23-.34.51-.34.83v.48c0,.18.05.35.16.5.11.16.25.24.41.24v.06-.06c.17,0,.31-.08.43-.24.1-.14.16-.31.16-.49v-.48c0-.3-.12-.57-.35-.83l-.05-.06.07-.03c.13-.06.26-.08.39-.08h.53v2.22h.2v-2.22h.48v-.2h-1.21c-.21,0-.41.06-.6.18l-.03.02-.03-.02c-.2-.12-.4-.18-.61-.18h-.16c-.34,0-.63.11-.86.34-.23.23-.35.52-.35.86v.48c0,.18.06.35.16.5.11.16.24.24.41.24.18,0,.31-.08.43-.24.11-.15.16-.31.15-.49,0-.18-.06-.34-.16-.5-.11-.16-.24-.24-.4-.24-.08,0-.14.02-.19.08-.05.05-.08.11-.08.18h-.12c0-.28.1-.52.29-.71.2-.2.44-.29.72-.29Zm.81,2.02h0c-.14,0-.24-.07-.31-.2-.05-.1-.08-.21-.08-.33v-.48c0-.3.11-.55.33-.73l.04-.03.04.03c.23.2.35.44.35.73v.48s0,.1-.02.17c-.02.08-.06.16-.11.23-.07.09-.14.13-.23.13Zm-.02-1.62c-.17.16-.25.36-.25.61v.48c0,.1.02.2.06.28.05.09.11.14.2.14h0c.05,0,.1-.03.14-.09.05-.06.08-.12.09-.19.01-.06.02-.11.02-.14v-.48c0-.24-.09-.44-.27-.61Zm-1.41,1.62h0c-.14,0-.24-.07-.3-.2-.05-.1-.08-.21-.08-.33s.03-.23.08-.33c.07-.13.17-.2.28-.2h.01c.08,0,.2.04.29.2.06.1.09.21.08.33,0,.05,0,.11-.02.16-.02.08-.06.16-.11.23-.08.11-.17.13-.23.13Zm-.02-1.01v.06c-.07,0-.13.05-.18.14-.05.09-.07.18-.07.28s.02.2.06.28c.05.09.11.14.2.14h0c.07,0,.11-.05.15-.09.05-.06.08-.12.09-.19.01-.05.02-.1.02-.14,0-.1-.02-.19-.07-.28-.05-.09-.11-.14-.19-.15v-.06Zm1.43-1.86c-.08,0-.16-.04-.25-.1-.08-.08-.11-.17-.11-.27s.04-.19.11-.26c.07-.07.16-.11.26-.11h0c.11,0,.19.04.26.11.07.08.11.17.12.26,0,.1-.03.19-.11.26-.08.07-.16.11-.26.11h-.02Zm.02-.63c-.08,0-.14.03-.19.08-.05.05-.08.11-.08.18,0,.07.02.13.08.18.06.05.12.07.17.07v.06-.06c.08,0,.14-.03.19-.08.06-.05.08-.11.08-.18,0-.07-.03-.13-.09-.18-.05-.05-.1-.08-.16-.08Z"/><path class="cls-4" d="m156.93,59.83c.09.09.2.14.34.14.12,0,.24-.05.33-.14.09-.1.14-.21.15-.33,0-.12-.04-.23-.14-.33-.1-.1-.21-.15-.33-.15h-.32v.32c0,.27-.09.5-.27.68-.18.18-.41.27-.68.27s-.49-.09-.67-.28c-.18-.18-.28-.41-.28-.67,0-.18.07-.33.18-.45.12-.12.27-.19.45-.19v-.95h2.06v.32h-.79v.63h.32c.22,0,.4.08.56.23.15.15.23.34.23.56,0,.21-.07.4-.23.55-.15.15-.34.23-.56.24-.22,0-.41-.08-.56-.24l.22-.21Zm-.93.14c.17,0,.32-.06.44-.19.13-.13.19-.28.19-.45v-.32h-.95c-.09,0-.16.04-.22.1-.06.06-.09.14-.09.23,0,.17.06.32.18.44.12.12.28.19.45.19m.63-1.9h-.63v.63h.63v-.63Zm4.36,0v1.11c0-.13.05-.24.14-.34.09-.1.2-.14.33-.14.27,0,.49.09.67.28.18.18.27.41.28.68,0,.53-.18.97-.56,1.35-.37.37-.82.56-1.34.56h-.16c-.53,0-.98-.19-1.35-.56-.37-.37-.55-.82-.55-1.35v-.31c0-.3.08-.57.23-.83.16-.25.37-.44.64-.58l.15.29c-.21.1-.38.26-.51.46-.13.2-.19.42-.19.66v.31c0,.44.15.82.46,1.13.31.31.69.46,1.13.46h.16c.44,0,.82-.15,1.12-.46.3-.31.45-.68.46-1.13,0-.17-.06-.31-.19-.44-.13-.13-.27-.19-.44-.2-.15,0-.27.07-.36.22-.08.12-.12.27-.12.42v.63h-.32v-2.22h-.63v2.22h-.32v-2.54h1.9v.32h-.63Z"/><path class="cls-4" d="m160.52,61.61h-.16c-.54,0-1.01-.19-1.39-.57-.38-.38-.57-.85-.57-1.39v-.31c0-.31.08-.6.24-.86.16-.26.38-.46.66-.6l.05-.03.2.39-.06.03c-.2.1-.36.24-.49.44-.12.19-.18.41-.18.63v.31c0,.43.15.79.44,1.08.29.29.66.44,1.09.44h.16c.43,0,.79-.15,1.08-.44.29-.29.43-.66.44-1.08,0-.15-.06-.29-.17-.4-.11-.12-.25-.18-.4-.18h0c-.14,0-.23.06-.3.19-.08.12-.11.25-.11.39v.69h-.43v-2.22h-.52v2.22h-.44v-2.65h2.02v.43h-.63v.72s.03-.03.04-.05c.1-.11.23-.16.38-.16h0c.29,0,.53.1.72.29.19.2.29.44.29.72,0,.54-.19,1-.57,1.39-.38.38-.85.58-1.39.58Zm-1.21-3.61c-.23.13-.43.31-.56.53-.15.24-.23.51-.23.8v.31c0,.51.18.95.54,1.31.36.36.79.54,1.31.54h.16c.5,0,.94-.18,1.31-.54.36-.36.54-.8.54-1.3,0-.25-.09-.47-.26-.64-.17-.17-.37-.25-.62-.25-.13,0-.23.04-.31.12-.08.08-.12.18-.12.3h-.12v-1.17h.63v-.2h-1.79v2.42h.21v-2.22h.75v2.22h.2v-.58c0-.17.04-.32.13-.45.1-.16.23-.24.39-.24.2,0,.36.08.49.21.14.14.21.3.21.48,0,.46-.16.85-.48,1.17-.32.31-.71.47-1.16.47h-.16c-.46,0-.85-.16-1.17-.48-.32-.32-.48-.71-.48-1.17v-.31c0-.25.07-.48.2-.69.13-.2.29-.35.48-.46l-.09-.18Zm-2.05,2.34c-.23,0-.42-.09-.58-.25-.18.16-.42.25-.68.25-.28,0-.52-.1-.71-.29-.19-.19-.29-.43-.29-.71,0-.19.07-.36.2-.49.12-.12.27-.19.43-.2v-.95h2.18v.43h-.79v.52h.26c.23,0,.43.09.6.25.17.16.25.37.25.6,0,.23-.08.43-.24.59-.17.17-.37.25-.6.26h-.01Zm-.46-.3c.13.12.28.18.46.18v.06-.06c.21,0,.39-.08.53-.22.14-.14.22-.32.21-.51,0-.21-.07-.38-.22-.52-.14-.15-.31-.22-.52-.22h-.37v-.75h.79v-.2h-1.94v.95h-.06c-.16,0-.3.06-.41.17-.11.11-.17.25-.17.41,0,.25.08.46.26.63.17.17.38.26.63.26s.47-.09.64-.26c.17-.17.26-.38.26-.64v-.38h.37c.14,0,.26.05.37.16.11.11.16.23.16.37,0,.14-.06.26-.16.37-.1.1-.23.16-.37.16-.13,0-.24-.04-.33-.12l-.14.13Zm.14-.3l.04.04c.08.08.18.12.29.12.11,0,.2-.04.29-.13.08-.09.13-.18.13-.29,0-.11-.04-.2-.12-.29-.09-.09-.18-.13-.29-.13h-.26v.27c0,.15-.02.29-.08.42h0Zm-.92.28h-.02c-.19,0-.35-.07-.49-.21-.14-.13-.2-.3-.2-.49,0-.1.04-.19.11-.26.07-.08.16-.11.26-.11h1.01v.38c0,.18-.07.35-.21.49-.13.13-.29.21-.47.21Zm-.33-.96c-.07,0-.13.03-.18.08-.06.05-.08.11-.08.18,0,.16.05.29.17.4.11.11.25.17.41.17h0c.16,0,.29-.06.4-.17.12-.12.17-.25.17-.4v-.27h-.89Zm1.01-.31h-.75v-.75h.75v.75Zm-.63-.12h.52v-.52h-.52v.52Z"/><path class="cls-4" d="m164.7,59.01v.32c0,.27-.09.5-.27.68-.18.18-.41.27-.68.28-.27,0-.5-.09-.68-.27-.18-.18-.27-.41-.27-.68,0-.18.06-.32.18-.44.12-.12.27-.18.45-.19v-.95h1.9v.31h-.64v.64h.32c.17,0,.32.06.44.19.12.13.19.27.19.44v.16c0,.36-.12.66-.36.9-.24.24-.54.37-.9.37h-.64c-.15,0-.29.04-.41.12-.15.09-.22.21-.22.35v.13h-.31v-.13c0-.23.1-.42.31-.58.19-.14.4-.21.64-.21h.64c.27,0,.49-.09.67-.28.18-.19.28-.41.28-.67v-.16c0-.08-.03-.15-.1-.22-.07-.06-.14-.1-.22-.1h-.32Zm-.95.96c.17,0,.32-.06.45-.19.13-.13.19-.28.19-.45v-.32h-.96c-.08,0-.16.04-.22.1-.06.06-.09.14-.09.22,0,.18.06.33.18.45.13.12.28.19.45.19m.64-1.91h-.64v.64h.64v-.64Zm.13-1.6c.08,0,.15.03.22.09.06.07.1.14.1.22,0,.08-.02.15-.09.22-.06.06-.14.1-.22.1-.07,0-.15-.03-.22-.09-.06-.06-.09-.14-.09-.23,0-.08.03-.16.09-.22.06-.06.14-.09.22-.1m3.43,2.55v.32c0,.27-.09.5-.27.68-.18.18-.41.27-.68.28-.27,0-.5-.09-.68-.27-.18-.18-.27-.41-.27-.68,0-.18.06-.32.18-.44.12-.12.27-.18.45-.19v-.95h1.9v.31h-.64v.64h.32c.17,0,.32.06.44.19.12.13.19.27.19.44v.16c0,.36-.12.66-.36.9-.24.24-.54.37-.9.37h-.64c-.15,0-.29.04-.41.12-.15.09-.22.21-.22.35v.13h-.31v-.13c0-.23.1-.42.31-.58.19-.14.4-.21.64-.21h.64c.27,0,.49-.09.67-.28.18-.19.27-.41.27-.67v-.16c0-.08-.03-.15-.1-.22-.06-.06-.14-.1-.22-.1h-.32Zm-.95.96c.17,0,.32-.06.45-.19.12-.13.19-.28.19-.45v-.32h-.96c-.08,0-.15.04-.22.1-.07.06-.1.14-.1.22,0,.18.06.33.18.45.12.12.27.19.45.19m.64-1.91h-.64v.64h.64v-.64Zm3.19,0v2.22l-.79.79-.23-.23.71-.72v-2.06h-.81v2.22h-.31v-2.54h2.06v.31h-.63Zm2.07,2.22v-2.22h-.64v2.22h-.31v-2.54h1.9v.31h-.63v.95s.05-.09.09-.14c.03-.05.08-.1.13-.15.05-.05.11-.09.19-.12.07-.03.15-.05.23-.05.09,0,.17.01.25.04.08.04.14.08.2.14.06.06.1.13.13.21.04.08.05.16.06.25,0,.08-.01.17-.04.26-.03.09-.07.17-.12.25-.05.08-.11.14-.16.19-.06.05-.12.08-.18.09h.82v-2.22h.32v2.54h-1.59v-.32c.09-.02.17-.06.25-.11.08-.06.14-.11.2-.19.06-.07.1-.15.13-.24.03-.09.05-.17.05-.26s-.03-.16-.1-.22c-.07-.06-.14-.1-.22-.1-.1,0-.18.02-.26.07-.08.05-.15.11-.2.19-.05.08-.1.16-.13.26-.03.1-.04.19-.04.28v.63h-.31Zm.69-3.83c.08,0,.16.03.22.09.06.07.1.14.1.22,0,.08-.03.15-.1.22-.07.06-.14.1-.22.1-.07,0-.14-.03-.22-.09-.06-.06-.09-.14-.09-.23,0-.08.03-.16.09-.22.06-.06.14-.09.22-.1m3.06,1.69c-.22.09-.4.25-.53.48-.13.22-.2.46-.2.71,0,.44.15.82.46,1.12.31.31.68.46,1.12.46h.16c.41,0,.75-.14,1.02-.41.27-.27.4-.61.4-1.02,0-.13-.05-.24-.14-.33-.1-.1-.2-.15-.33-.15h-.31v.32c0,.26-.09.49-.28.67-.18.18-.41.28-.67.28s-.49-.09-.68-.27c-.18-.18-.28-.4-.28-.68,0-.18.06-.33.18-.45.12-.12.27-.19.45-.19v-.95h2.06v.32h-.79v.63h.31c.22,0,.41.08.56.23.15.15.23.34.23.56,0,.49-.16.9-.5,1.24-.34.34-.75.5-1.24.5h-.16c-.53,0-.98-.18-1.35-.55-.37-.37-.55-.82-.55-1.35,0-.31.08-.59.23-.85.16-.27.37-.46.64-.59l.18.26Zm.69,1.82c.17,0,.32-.06.44-.19.13-.13.19-.27.19-.44v-.32h-.95c-.09,0-.16.04-.22.1-.06.06-.1.14-.1.23,0,.18.06.33.18.45.12.12.28.18.46.18m.63-1.9h-.63v.63h.63v-.63Z"/><path class="cls-4" d="m166.42,61.42h-.43v-.19c0-.25.11-.46.33-.62.2-.15.42-.22.67-.22h.64c.25,0,.46-.08.63-.26.17-.17.26-.38.26-.63v-.16c0-.07-.03-.13-.08-.18-.05-.05-.11-.08-.18-.08h-.26v.26c0,.29-.1.53-.29.72-.19.19-.43.29-.72.29h0c-.3,0-.53-.1-.72-.29-.19-.19-.28-.44-.28-.72,0-.19.07-.35.2-.48.12-.11.27-.18.43-.2v-.96h2.02v.43h-.64v.52h.26c.18,0,.35.07.49.21.13.13.2.3.2.48v.16c0,.37-.13.69-.38.94-.25.25-.57.38-.94.38h-.64c-.14,0-.27.04-.38.11-.13.08-.19.18-.19.3v.19Zm-.31-.11h.19v-.08c0-.16.08-.3.25-.4.13-.09.28-.13.44-.13h.64c.35,0,.63-.11.86-.35.23-.23.35-.52.35-.86v-.16c0-.15-.06-.29-.17-.4-.12-.11-.25-.17-.4-.17h-.37v-.76h.64v-.19h-1.79v.95h-.06c-.16,0-.3.06-.41.17-.11.11-.17.24-.17.4,0,.26.08.47.25.64.16.17.37.25.62.25.27,0,.48-.09.65-.26.17-.17.25-.38.25-.64v-.37h.38c.1,0,.18.04.26.11.08.08.11.16.11.26v.16c0,.28-.1.52-.29.72-.19.2-.44.29-.72.29h-.64c-.22,0-.42.07-.6.2-.19.14-.29.32-.29.53v.07Zm-2.94.11h-.42v-.19c0-.25.11-.46.33-.62.2-.15.42-.22.67-.22h.64c.25,0,.46-.09.63-.26.17-.17.26-.39.26-.63v-.16c0-.07-.03-.13-.08-.18-.05-.05-.12-.08-.18-.08h-.26v.26c0,.29-.1.53-.29.72-.19.19-.44.29-.72.29h0c-.3,0-.53-.1-.72-.29-.19-.19-.28-.44-.28-.72,0-.19.06-.35.2-.48.12-.11.26-.18.43-.2v-.96h2.02v.43h-.64v.52h.26c.19,0,.35.07.48.21.14.13.21.3.21.48v.16c0,.37-.13.69-.38.94-.25.25-.57.38-.94.38h-.64c-.14,0-.27.04-.38.11-.13.08-.19.18-.19.3v.19Zm-.31-.11h.19v-.08c0-.16.08-.3.25-.4.13-.09.29-.13.44-.13h.64c.34,0,.63-.11.86-.35.23-.23.35-.52.35-.86v-.16c0-.15-.06-.29-.17-.4-.12-.11-.25-.17-.41-.17h-.37v-.76h.64v-.19h-1.79v.95h-.06c-.16,0-.3.06-.41.17-.11.11-.17.24-.17.4,0,.26.08.47.25.64.16.17.37.25.62.25.27,0,.48-.09.65-.26.17-.17.26-.38.26-.64v-.37h.37c.1,0,.19.04.26.11.07.08.11.16.11.26v.16c0,.28-.1.52-.29.72-.2.2-.43.29-.72.29h-.64c-.23,0-.42.07-.6.2-.19.14-.29.32-.29.53v.07Zm14.8-.02h-.16c-.55,0-1.01-.19-1.39-.57-.38-.37-.57-.84-.57-1.39,0-.31.08-.61.24-.89.16-.27.39-.48.67-.61l.04-.02.25.36-.06.03c-.21.09-.38.24-.51.45-.13.21-.19.44-.19.68,0,.42.15.79.44,1.08.3.29.66.44,1.08.44h.16c.4,0,.72-.13.98-.39.26-.26.39-.58.39-.97,0-.11-.04-.21-.13-.29-.09-.09-.18-.13-.29-.13h-.26v.27c0,.28-.1.52-.3.71-.19.2-.43.29-.71.29s-.52-.1-.72-.29c-.19-.19-.29-.43-.3-.72,0-.19.07-.36.2-.49.12-.12.27-.19.43-.2v-.95h2.18v.43h-.79v.52h.26c.24,0,.44.09.6.25.16.16.25.37.25.6,0,.5-.17.93-.51,1.28-.34.35-.78.52-1.28.52Zm-1.21-3.33c-.24.13-.43.31-.57.55-.15.26-.22.53-.22.82,0,.51.18.96.54,1.31.35.35.79.53,1.31.53h.16c.47,0,.88-.16,1.2-.48.32-.32.49-.72.48-1.19,0-.21-.07-.38-.21-.52-.14-.15-.31-.22-.52-.22h-.37v-.75h.79v-.2h-1.94v.95h-.06c-.16,0-.29.06-.41.17-.11.11-.16.25-.16.41,0,.26.09.47.26.64.17.17.38.26.63.26s.46-.09.63-.26c.18-.17.26-.38.26-.63v-.38h.37c.14,0,.27.05.37.16.11.11.16.23.16.38,0,.42-.14.78-.42,1.06-.28.28-.64.42-1.06.42h-.16c-.45,0-.84-.16-1.16-.48-.32-.32-.48-.71-.48-1.16,0-.26.07-.51.21-.74.12-.21.29-.37.5-.47l-.11-.16Zm-6.42,3.2l-.32-.32.74-.74v-1.98h-.69v2.22h-.43v-2.65h2.18v.43h-.63v2.19l-.85.85Zm-.15-.32l.15.15.73-.73v-2.26h.63v-.19h-1.95v2.42h.19v-2.23h.92v2.15l-.69.69Zm5.28-.5h-1.7v-.42h.04c.08-.03.16-.06.23-.11.07-.05.13-.11.19-.18.06-.07.1-.14.13-.22.03-.08.05-.16.05-.24,0-.07-.03-.13-.08-.18-.05-.06-.11-.08-.18-.08h-.02c-.08,0-.14.02-.21.06-.07.05-.13.11-.19.18-.05.07-.09.15-.12.24-.03.09-.04.18-.04.26v.69h-.42v-2.22h-.53v2.22h-.42v-2.65h2.01v.43h-.63v.68s.07-.08.12-.12c.06-.05.13-.09.2-.13.08-.04.16-.06.26-.06h.03c.09,0,.17.02.25.05.08.04.16.09.21.15.06.07.11.14.15.22.03.08.05.17.06.26,0,.09-.01.19-.04.29-.03.1-.08.18-.13.26-.05.07-.1.14-.16.19h.54v-2.22h.44v2.65Zm-1.59-.11h1.47v-2.42h-.21v2.22h-.88v-.11s.09-.03.14-.08c.06-.05.11-.11.15-.17.05-.07.08-.15.11-.24.03-.08.04-.16.04-.24,0-.08-.02-.15-.05-.22-.03-.08-.07-.14-.12-.19-.05-.05-.11-.1-.18-.13-.06-.03-.13-.04-.2-.04h-.02c-.08,0-.15.02-.21.05-.07.03-.12.06-.17.11-.05.05-.09.09-.12.14-.03.04-.06.09-.07.13l-.11-.02v-1.01s.63,0,.63,0v-.19h-1.78v2.42h.2v-2.23h.76v2.23h.19v-.58c0-.09.02-.19.04-.29.03-.1.08-.19.14-.28.06-.08.13-.15.22-.21.08-.05.18-.08.27-.08h.02c.1,0,.18.04.26.12.08.08.11.16.11.26s-.01.19-.05.28c-.03.09-.08.18-.14.25-.06.08-.13.14-.21.2-.07.05-.14.08-.22.11v.22Zm-6.57-.2h-.01c-.19,0-.36-.07-.49-.21-.14-.13-.2-.3-.2-.49,0-.1.04-.19.11-.26.08-.07.16-.11.26-.11h1.02v.37c0,.19-.07.36-.2.49-.13.14-.3.21-.48.21Zm-.33-.96c-.07,0-.13.03-.18.08-.05.05-.08.11-.08.18,0,.16.05.3.17.41.11.11.25.17.41.17h0c.17,0,.29-.05.41-.17.12-.12.17-.25.17-.41v-.26h-.9Zm-2.92.96h0c-.2,0-.37-.07-.51-.21-.13-.13-.2-.3-.2-.49,0-.1.04-.19.11-.26.08-.07.16-.11.26-.11h1.01v.37c0,.19-.07.36-.2.49-.13.14-.3.21-.48.21Zm-.33-.96c-.07,0-.13.03-.18.08-.05.05-.08.11-.08.18,0,.16.05.3.16.41.12.11.25.17.41.17h0c.16,0,.3-.05.41-.17.12-.12.17-.25.17-.41v-.26h-.9Zm13.92.96c-.19,0-.36-.07-.5-.2-.13-.13-.2-.3-.2-.49,0-.1.04-.19.11-.26.08-.08.16-.11.26-.11h1.01v.38c0,.18-.07.35-.21.48-.14.14-.3.21-.49.21Zm-.32-.96c-.07,0-.13.03-.18.08-.05.05-.08.11-.08.18,0,.17.05.3.16.41.12.11.25.17.42.17.16,0,.29-.06.4-.17.12-.12.17-.25.17-.4v-.27h-.9Zm-9.33-.31h-.76v-.76h.76v.76Zm-.64-.12h.53v-.52h-.53v.52Zm-2.61.12h-.75v-.76h.75v.76Zm-.64-.12h.53v-.52h-.53v.52Zm14.23.11h-.75v-.75h.75v.75Zm-.63-.12h.52v-.52h-.52v.52Zm-3.83-1.49c-.08,0-.16-.04-.25-.1-.08-.08-.11-.17-.11-.27s.04-.19.11-.26c.07-.07.16-.11.26-.11h0c.1,0,.19.04.26.11.07.08.11.16.12.26,0,.1-.04.19-.11.26-.08.07-.16.11-.26.11h-.01Zm.02-.63c-.08,0-.14.03-.19.08-.05.05-.08.11-.08.18,0,.07.03.13.07.18.06.05.12.07.17.07v.06-.06c.08,0,.14-.03.19-.08.05-.05.08-.11.08-.18,0-.07-.03-.13-.09-.18-.05-.05-.1-.08-.16-.08Zm-9.09.63c-.08,0-.17-.04-.25-.1-.07-.08-.11-.16-.11-.27,0-.1.04-.19.11-.26.07-.07.16-.11.26-.11h0c.11,0,.19.04.26.11.07.08.11.16.11.26,0,.1-.03.19-.11.26-.07.07-.16.11-.26.11h-.01Zm.02-.63c-.08,0-.14.03-.19.08-.05.05-.08.11-.08.18,0,.08.02.13.08.18.06.05.12.07.17.07v.06-.06c.08,0,.14-.03.19-.08.06-.05.08-.11.08-.18,0-.07-.03-.13-.08-.18-.05-.05-.1-.08-.17-.08Z"/><polygon class="cls-3" points="40.69 21.97 47.59 21.97 53.06 36.38 58.85 21.97 65.82 21.97 69.9 48.93 62.89 48.93 60.92 33.41 60.85 33.41 54.38 48.93 51.59 48.93 45.41 33.41 45.34 33.41 43.09 48.93 36.12 48.93 40.69 21.97"/><polygon class="cls-8" points="83.59 48.93 76.58 48.93 76.58 27.91 70.8 27.91 70.8 21.97 89.39 21.97 89.39 27.91 83.59 27.91 83.59 48.93"/><polygon class="cls-4" points="98.93 42.99 107.33 42.99 107.33 48.93 91.92 48.93 91.92 21.97 98.93 21.97 98.93 42.99"/><path class="cls-7" d="m32.77,41.48c-.06.03-.07.03-.03,0,.04-.02.08-.04.1-.05.02,0,0,.01-.06.04"/><path class="cls-7" d="m32.56,41.49l-.13.11c-.08.03-.17.05-.25.08-.14.04-.32.11-.41.14-.09.03-.16.06-.16.06,0,0,.56-.31.84-.43.13-.06.25-.09.25-.09,0,0-.05.06-.12.12"/><path class="cls-7" d="m32.54,41.58c-.07.04-.1.05-.07.02.04-.02.09-.05.13-.06.04-.02.01,0-.06.04"/><path class="cls-7" d="m32.57,41.67s-.1.05-.15.06c-.07.02-.06.02.03-.03.06-.03.13-.06.15-.06.02,0,0,.01-.03.03"/><path class="cls-7" d="m32.61,42.02s-.23.12-.43.23c-.59.31-.58.31-.61.27,0-.02,0-.04.03-.05.1-.04.51-.26.5-.27,0,0,.04-.04.11-.07.06-.03.11-.05.12-.04,0,0,.07-.01.17-.06.16-.08.24-.09.11,0"/><path class="cls-7" d="m32.51,41.9c-.07.05-.56.27-.57.25,0-.01.11-.08.37-.2.22-.1.28-.11.19-.05"/><path class="cls-7" d="m32.2,41.52c-.05.02-.18.08-.28.14-.11.05-.2.09-.2.08,0,0,.03-.03.08-.05.04-.02.17-.08.29-.14s.21-.09.21-.08c0,0-.03.03-.09.05"/><path class="cls-7" d="m32.04,42.18c-.1.05-.2.1-.21.12-.03.04-.45.25-.51.26-.03,0-.09.03-.13.07-.06.04-.11.06-.13.06-.03,0-.02-.01.05-.05.05-.02.29-.16.55-.29.47-.25.56-.28.57-.27,0,0-.08.05-.18.1"/><path class="cls-7" d="m32.81,48.51c.4-.35.51-.47.22-.23-.19.15-.63.55-.62.56,0,0,.19-.14.41-.33"/><path class="cls-7" d="m31.83,42.63c-.07.04-.09.05-.06.03.03-.02.08-.06.12-.07.04-.02,0,0-.06.04"/><path class="cls-7" d="m31.47,42.4c-.06.03-.07.04-.04,0,.03-.02.08-.05.1-.05.02,0,0,.02-.06.05"/><path class="cls-7" d="m31.4,42.3c-.09.05-.32.15-.33.14,0,0,.06-.04.14-.08.17-.08.26-.11.19-.07"/><path class="cls-7" d="m31.08,42.06c-.08.04-.34.17-.35.16,0-.01.29-.16.33-.17.02,0,.02,0,.01,0"/><path class="cls-7" d="m30.74,42.66s-.12.07-.17.08c-.08.03-.09.03-.05,0,.03-.03.1-.06.17-.08.09-.03.1-.03.04,0"/><path class="cls-7" d="m31.54,49.65s.04-.05.07-.07c.03-.02.03-.01,0,.02-.02.03-.06.06-.07.07-.02,0-.02,0,0-.02"/><path class="cls-6" d="m17.62,63.46c.04-.18.15-.31.07-.44,0,.14-.1.35-.07.44"/><path class="cls-6" d="m18.31,61.65c-.08-.07-.11.32-.03.17-.05-.01.05-.08.03-.17"/><path class="cls-6" d="m18.94,57.82c.03-.09.03-.25,0-.35-.03.06-.02.27,0,.35"/><path class="cls-6" d="m21.02,31.87s.06.03.05.07c-.06,0-.21.21-.2.29.12-.13.12-.09.12-.21.26-.19.26-.4.36-.68.23-.19.19-.41.4-.77-.25.3-.43.88-.74,1.3"/><path class="cls-6" d="m20.51,32.88c.18-.31.26-.5.36-.62-.16.09-.36.52-.36.62"/><path class="cls-6" d="m18.41,63.62c.06.03.12-.22.1-.23,0,.06-.07,0-.08.05.09-.02.01.16-.01.18"/><path class="cls-6" d="m20.3,33.34c0-.11.19-.32.19-.43-.03.06-.25.35-.19.43"/><path class="cls-6" d="m19.45,58.54c.06-.3.07-.8.07-1.14,0,.03,0,.07-.03.07-.04-.29.07-.64,0-.86-.05.83.01,1.17-.04,1.92"/><path class="cls-6" d="m17.74,39.52v.03s0-.02,0-.03"/><path class="cls-6" d="m17.83,61.3c-.14-.08.11-.61,0-.8-.08.89-.16,1.2-.33,2.18.2-.34.17-.94.32-1.37"/><path class="cls-6" d="m17.21,65.74c.04-.21.2-.34.13-.5-.01.18-.19.48-.13.5"/><path class="cls-6" d="m18.18,63.36c.09-.19.15-.4.15-.61-.04.18-.14.5-.15.61"/><path class="cls-6" d="m18.26,64.23c-.04.09-.18.43-.12.41.02-.14.15-.32.12-.41"/><path class="cls-6" d="m18.86,63.38c-.22.82-.65,1.89-.95,2.75.3-.66.87-1.95.95-2.75"/><path class="cls-6" d="m17.91,66.12c-.07-.01-.02.14,0,0"/><path class="cls-6" d="m15.03,37.54l-.07-.02c-.02.16-.02.17-.08.33.12,0,.07-.18.15-.31"/><path class="cls-6" d="m14.54,41.1c.03-.49.1-1.08.04-1.33-.05.65-.13,1.48-.15,2.2-.02.72,0,1.33.08,1.54-.06-.94-.01-1.67.03-2.41"/><path class="cls-6" d="m14.55,44.3s0,.01,0,.02c-.04.12.03.76.13,1.02-.07-.23-.06-.81-.13-1.04"/><path class="cls-6" d="m14.53,44.28s-.02-.05-.04-.06c0,.18.02.06.04.06"/><path class="cls-6" d="m14.53,44.28v.03s0-.03,0-.03"/><path class="cls-6" d="m15,47.36s-.07,0-.06.07c.13.34.18.89.28.98-.07-.39-.14-.72-.22-1.05"/><path class="cls-6" d="m14.82,46.47c.06.42.11.56.13.85.05-.21-.06-.65-.13-.85"/><path class="cls-6" d="m15.45,49.49c0-.08-.09-.26-.04-.26.02.07.08.38.07.2-.08-.3-.09-.29-.17-.45.04.14.12.64.14.51"/><path class="cls-6" d="m16.26,52c-.15-.01.05.31.05.25.01.06-.03.05-.03.1h.07c0-.21-.14-.21-.09-.35"/><path class="cls-6" d="m16.75,58.13c.07-1.49.08-2.99-.21-4.35.19,1.44.15,2.71.21,4.35"/><path class="cls-6" d="m16.79,54.19c.03-.11.02-.5-.08-.47.02.16,0,.45.08.47"/><path class="cls-6" d="m16.8,54.57c.01.32.04.86.08.96,0-.17-.01-.35.05-.39-.15-.05,0-.46-.13-.58"/><path class="cls-6" d="m17.31,33.42c-.09.19-.25.36-.31.62.11-.27.31-.41.31-.62"/><path class="cls-6" d="m17.33,33.37c.15-.1.31-.51.37-.7-.12.21-.29.41-.37.7"/><path class="cls-6" d="m16.7,58.42c-.04.41-.07.81-.03,1.09.06-.37.13-.86.03-1.09"/><path class="cls-6" d="m15.39,39.06c.03.33-.11.7-.11,1.12-.04.12,0,.25.02.05.18-1.44.4-2.22.58-3.16-.3.88-.34,1.55-.49,1.98"/><path class="cls-6" d="m15.16,41.62c0,.14,0,.28-.01.43,0,.3.04.06.03-.11,0-.27.06-.67.02-.85-.03.12-.04.21-.05.48.01,0,.03,0,.02.06"/><path class="cls-6" d="m15.19,41.03c.02-.18.07-.44.03-.59,0,.18-.08.5-.03.59"/><path class="cls-6" d="m16.62,59.7c-.01.97-.27,2.25-.25,2.99.16-1.09.26-2.28.31-3.03,0-.07-.04-.01-.06.05"/><path class="cls-6" d="m19.6,29.71c0-.09.16-.31.13-.38-.09.15-.25.48-.13.38"/><path class="cls-6" d="m16.42,50.23c-.03-.15-.07-.25-.12-.29.04.1.05.36.12.29"/><path class="cls-6" d="m16.33,62.74c-.04.25-.13.57-.08.7,0-.23.16-.64.08-.7"/><path class="cls-6" d="m16.18,63.63c-.03.17-.05.33-.03.45.05-.2.11-.41.03-.45"/><path class="cls-6" d="m16.19,64.6c.02-.06.05-.06.06-.14-.04,0-.08.01-.12.07.02.02.02.11,0,.16-.11.72-.01.24.05-.09"/><path class="cls-6" d="m17.81,64.54c-.05.27-.22.57-.22.75.1-.18.18-.49.29-.62-.09.04-.04-.09-.07-.12"/><path class="cls-6" d="m16.41,53.05c.09.14.03.37.12.45,0-.2-.07-.55-.12-.45"/><path class="cls-6" d="m16.37,51.98s-.03-.06-.02,0c.25.32.24,1.18.39,1.54-.02-.16-.09-.62-.18-1.03-.09-.41-.21-.76-.23-.81.01.03.03.22.05.3"/><path class="cls-6" d="m16.33,51.69s0,0,0,0c0,0,0,0,0,0"/><path class="cls-6" d="m19.21,30.06c-.27.39-.53.88-.67,1.25.26-.4.35-.53.46-.79.03.06.18-.11.14-.15-.05.1-.1.13-.14.09.06-.13.23-.33.2-.4"/><path class="cls-6" d="m16.54,59.4c-.02.2-.04.4-.02.54.03-.19.06-.58.02-.54"/><path class="cls-6" d="m17.8,32.61s.24-.54.16-.39c-.06.11-.32.52-.16.39"/><path class="cls-6" d="m15.3,45.27c0,.08.02.15.03.23,0-.05,0-.12-.03-.23"/><path class="cls-6" d="m15.32,45.51c-.01.09-.07.06-.09.04.27,1.95.85,4.45,1.46,5.94-.64-1.94-1.17-4.18-1.37-5.98"/><path class="cls-6" d="m16.91,55.48c0-.09,0-.12,0,0"/><path class="cls-6" d="m16.96,55.97c-.02-.13-.03-.27-.04-.34,0-.06,0-.11-.01-.15,0,.12,0,.35-.04.39.07-.06.05.26.09.1"/><path class="cls-6" d="m16.89,56.07c0,.41,0,1.06.03,1.23.06-.35.05-.84-.03-1.23"/><path class="cls-6" d="m20.23,29.24c-.05.11-.1.21-.14.31-.09-.03-.15-.12-.02-.58-.54.94-1.2,1.94-1.87,3.07-.67,1.13-1.35,2.4-1.86,3.81-.52,1.41-.87,2.96-1.01,4.55-.14,1.59-.09,3.22.11,4.82v.03c.14,1.22.37,2.62.75,3.96.18.74.38,1.46.59,2.17.19.62.29,1.28.36,1.96-.08-.65-.21-1.33-.45-1.81.12.63.41,1.28.33,1.82-.09-.69-.23-1.34-.45-1.96-.25-.72-.48-1.46-.69-2.21-.4-1.49-.69-3.04-.76-4.59.03.05.02.19.08.15-.07-.41-.14-.92-.1-1.37-.14-.11-.16-.52-.15-.96.11.2.05-.38.11-.48-.12.04-.01.4-.11.43.01-1.27.14-2.59.39-3.82.24-1.23.59-2.37.93-3.32-.11.23-.1.28-.2.38.12-.51.55-1.25.59-1.62.27-.54.64-1.13.83-1.66-.18.3-.36.72-.51.81.4-.74,1.24-2.28,1.76-2.87-.17.38-.72,1.06-.88,1.56.44-.82,1.16-1.8,1.48-2.47-.27.2-.29.57-.57.87-.06-.02,0-.13,0-.18.16-.02.42-.63.43-.77.09.09.08-.08.11-.16-.15.07-.16.08-.31.11.07-.22.23-.27.23-.37-.08.08-.16.15-.25.31-.04.16.03.1.04.18-.04-.06-.1.21-.14.15-.13.02.14-.23,0-.21-.12.16-.03.16-.1.28-.55.68-1.41,2.08-1.86,3.02.28-.23.35-.75.65-1.02-.22.43-.42.77-.57,1.07-.03-.02,0-.08-.04-.08-.07.12-.16.32-.14.17-.37.7-.44.96-.59,1.46-.07.07-.07-.04-.18.1.05.06-.07.33-.13.48.05.11.09-.17.13-.12-.09.22-.11.34-.25.54.03-.12.2-.38.1-.38-.34.76-.6,1.58-.72,2.1.23-.51.36-1.34.64-1.65-.24.48-.49,1.42-.66,1.88-.04,0,.03-.28-.04-.12.02.1-.09.34-.18.47.18.13.08-.29.22-.29-.13.41-.21.97-.33,1.29-.05-.06.15-.64-.01-.4.03.24-.08.37-.16.77.1.24-.19.76-.07.89.13-.34.14-1.08.22-1.2.05.35-.09.85-.14,1.27-.21,1.96-.14,3.76.08,5.53.23,1.78.62,3.54,1.21,5.45.02.1.16.58.11.3-.39-1.35-.67-2.42-.82-3.39.13.23.15.48.23.82.15.63.32,1.26.5,1.89.09.31.19.63.29.93.02.07.05.16.07.22.02.06.04.13.06.19.04.13.07.26.11.39.27,1.05.38,2.18.46,3.16.03.3,0,.63,0,.93.04,1.33.04,2.65-.1,4.1-.13,1.24-.3,2.41-.48,3.46-.07.36-.03.37-.05.55-.04.06-.26.91-.23,1.08.11-.6.17-.65.24-.71,0,.05-.02.2-.05.38,0,.03-.01.05-.02.06-.06.29-.13.6-.11.65.11-.44.23-1.09.3-1.07h0c-.04.21-.08.4-.12.57l.03-.09c-.07.32-.13.62-.2.89-.05.2-.11.4-.16.58l-.08.26c-.03.09-.06.18-.09.27.1-.22.22-.55.34-.96.12-.4.24-.86.35-1.27.2-.77.36-1.39.45-1.18v.05c-.04.1-.08.3-.09.44,0,.09-.14.32.05.18-.15-.03.02-.14.06-.16-.04-.01-.06.03-.1.02.11-.33.28-1.05.34-1.43.03,0,.05.02.06.05.1-.55.25-1.14.24-1.53.03-.03.07-.07.1-.19.08-.3.09-.92.18-1.19-.01.14-.03.29-.04.43-.06.54,0,.08.07-.5.02-.03.04-.05.06-.06-.09.19,0,.5-.01.81-.1.77-.23,1.59-.36,2.32-.04.05-.05.18-.04.25-.08.44-.15.85-.2,1.18.14-.56.27-1.28.39-1.98.08-.39.15-.71.22-1.11,0,.3-.07.89-.17,1.48-.11.7-.25,1.39-.27,1.64.09-.39.11-.4.11-.18l-.02.08c-.06.15-.15.4-.12.47l-.06.24s.03-.02.03-.04c-.09.43-.17.83-.26,1.14.17-.36.38-1.21.57-2.1.18-.6.32-1.26.5-2.09-.12.02-.06.36-.19.49.08.22-.13.54-.13.75,0,0-.02,0-.02,0,.2-1.07.34-2.01.46-1.99v-.04h.01s.02-.09.02-.13c-.06.52-.13,1.03-.21,1.5-.07.48-.34,1.18-.16,1.23-.03-.26.2-1.02.26-1.37.06,0,0,.15.04.16.09-.47.16-.95.23-1.43.01-.08.04-.14.07-.17.02.23-.09.8-.19,1.24-.01.06-.16.58-.06.31.07-.11.05-.46.18-.57-.04.44-.26,1.24-.36,1.71,0-.04.05-.04.05,0-.15.11-.13.52-.32.86.14-.17.23-.43.3-.65.24-.73.38-1.71.7-2.22-.1.31-.07.62-.12.94-.15.98-.65,1.9-.74,2.39-.04,0-.07-.02-.09-.05-.07.11.08.04.04.11-.16.46-.28.79-.47,1.22.09.06.04-.2.15-.18-.03.02-.11.17-.06.2.27-.54.45-1.06.67-1.64.19-.51.4-1.14.63-1.67,0,.09-.12.24-.03.31.04-.13.1-.27.07-.49,0,.08-.03.13-.08.13.39-1.4.66-2.96.8-4.68.02-.08-.11.01-.06-.11.1-.24.16-.77.13-1.11,0,.06-.03.08-.08.07.14-1.23.07-1.96.06-3.05-.08-.02-.03.14-.09.15-.04-.4-.14-.93-.05-1.11-.11.02-.16-.47-.11-.6.05.11,0,.23.08.22.02-.31,0-.89-.21-1.1-.02-.19-.05-.38-.08-.56-.02-.09-.04-.18-.06-.28-.02-.09-.05-.18-.06-.25-.08-.28-.16-.55-.24-.81-.17-.52-.33-1.01-.44-1.51,0,.04.01.08-.03.08-.13-.25-.12-.9-.26-.93-.13-.47-.2-.96-.27-1.32-.04.05.09.23-.04.24-.07-.23-.05-.4.02-.57-.28-1.03-.37-2.07-.38-3.06.02,0,.02,0,.03.01v.04s0,.06,0,.07c.01.51.06,1.02.1,1.28-.03-.67-.03-1.48-.03-2.09.01-.26.01-.51-.05-.66.01.05-.05.13-.05.06-.04-.32.12-.48,0-.58.03,0,.05-.04.1-.02-.03-.45.14-.82.12-1.26-.02.04-.09.03-.08-.01.07-.02.04-.11.11-.08.23-1.22.53-2.82,1.21-4.12.26-.5.66-1.06.78-1.53-.13.19-.23.52-.37.58.43-.98,1.02-1.71,1.59-2.77.06.05.08.04.08-.04-.18.03.09-.29.08-.48-.34.09-.37.71-.66.95-.02,0-.02-.03-.02-.04.2-.42.38-.8.49-1.1-.03-.36.08-.87-.32-.6.09-.26.14-.51.14-.73.07-.15.14-.18.21-.36-.23-.27-.5-.04-.76.02m-1.99,1.2c-.21.26-.33.65-.6.9.15-.17.34-.67.6-.9m.32-.17c-.31.5-.67,1.08-1.2,2.04.29-.67.87-1.67,1.2-2.04m-1.75,3.13c-.1,0,.06-.2.1-.31.05.03-.04.18-.1.31m-.26,0c0-.08.23-.24.19-.33.15-.11-.16.39-.22.55-.14.06.17-.38.03-.22m-.22.62c-.04.07-.07.11-.09.13.03-.06.06-.14.09-.13m-.86,2.6c.45-1.45.73-1.99,1.11-2.85.05,0,.11-.22.15-.1.04-.09.02-.13-.04-.14.1-.15.06,0,.13,0-.07.14-.13.26-.18.21,0,.05-.02.1-.05.1-.08.21-.3.71-.52,1.24-.21.53-.42,1.09-.53,1.39-.06.12-.09.39-.15.41.03-.09.05-.17.08-.26m.21,12.12c.18.37.31,1.06.43,1.52-.24-.5-.29-1.02-.43-1.52m.74,2.57s.08.1.12.18c.03.07.05.16.04.22-.08,0-.1-.22-.16-.4m.2.66c.18.26.31,1.06.3,1.35-.13-.34-.19-.88-.3-1.35m2.26-.39c.13.31.23.83.29,1.35.06.52.09,1.04.13,1.39-.24-.5-.16-1.84-.42-2.73m-1.79,11.17c.03-.13.05-.24.05-.3,0-.03.01-.06.02-.1h0c-.02.14-.04.26-.06.41h0Zm0,.35l-.03.19h-.07c.03-.22.05-.3.07-.34-.02.09-.03.18-.06.29.03-.01.06-.07.09-.14m1.77-5.21c.09.06,0,.33,0,.49-.09-.06,0-.33,0-.49m.06-.91c.01-.17.03-.35.04-.53.05.25,0,.48-.02.71-.01-.06-.02-.12-.02-.18m-1.72-2.72c0,.13,0,.25.01.38-.01,0-.02,0-.02-.03-.02-.37-.15-.82-.11-1.2.09.27.07.62.12.86m-.25-.65c.11.23.17.79.15,1.1-.11-.21-.08-.77-.15-1.1m.18,1.83c.03.37.05.76.07,1.16-.02.42-.04.84-.07,1.26.02-.84.02-1.67,0-2.42m0,7.87c.14-.78.27-1.45.39-2.08-.11.71-.24,1.42-.39,2.08m.75-3.6c-.02-.11-.02-.29.03-.4h0s0,.02.01.04c0,.1-.02.21-.03.32l-.02.04Zm.04,1.65s.01-.06.02-.1v.02s-.02.08-.02.08Zm.5-.34v-.05s0,.12,0,.12c0-.02,0-.05,0-.07m1.19-5.33c0,1.32.07,2.38-.19,3.57,0,.03.05.04.04.11-.08.38-.04.75-.23,1.04-.03-.18-.01-.33-.02-.57-.04,0-.03.11-.1.06.09-.27.03-1.05.22-1.25.06-.68.12-2.25.16-3.38.12-.1.03.41.14.44m-.6,2.57c-.04.42-.08.97-.07,1.3.04.02,0,.03-.03.03,0-.04-.02-.02-.02,0-.02.1.07.08.1.12-.07-.08.06-.11-.04-.22.33-1.09.24-2.41.24-3.52.06.1.09.07.17.11-.05.69-.13,1.55-.18,2.37-.03.6-.06,1.3-.23,1.78-.02-.03-.01-.08-.06-.08,0,.05,0,.1-.04.1,0,.12,0,.16.08.12-.05.05-.03.24-.12.19-.04-.08.02-.07.06-.1-.13-.22.03-.32.01-.63-.16.24-.08.98-.28,1.16v-.06c.16-.91.27-1.9.34-3.04,0-.05-.07-.01-.06-.07.02-.2.03-.4.04-.59.09,0,0,.19.06.22.11-.31.05-.94.04-1.27-.05-.01,0,.13-.04.15v-.12c.05-.78.08-1.58.05-2.4.14,1.46.14,2.97-.02,4.46m.23-6.24c0,.06-.02,0-.03-.04.07.9.37,1.36.31,2.11-.05,0-.02-.13-.03-.18-.11.03.04.42-.08.44-.06-.97-.26-2.37-.43-3.35.18.2.17.84.26,1.02m-.44-2.49c-.12-.04-.16-.37-.16-.44.08.03.1.24.16.44m-.56-1.16c-.09-.17-.25-.63-.19-.81.07.24.13.52.19.81m-.35-1.59c-.08.04-.05-.12-.08-.19.06,0,.06.11.08.19m.82,3.7c-.23-.34-.29-.86-.43-1.41-.02.25.06.56.17.9.05.17.11.34.17.52.06.18.11.34.15.56-.09-.22-.16-.39-.23-.59l-.04-.14c-.14-.57-.28-1.14-.4-1.71.02.08.05.17.08.28-.09-.43-.18-.89-.28-1.34-.06-.33-.11-.66-.16-.99.25,1.23.53,2.47.97,3.91m-1.2-6.37s-.03-.03-.03-.04v-.16s0-.04,0-.05c.06.02.02.18.04.26m.06-3.68c.03-.07.03-.08.05-.22.04.06.05.23-.05.22m.19-.81c-.04.05-.08.1-.02.16,0,.03-.01.03-.03.03h-.05c.03-.05.04-.14.03-.17,0-.03.01-.03.03-.03h.04Zm.01-.19s0-.1-.05-.1h0s.03-.01.02,0c0,0,.07-.14,0-.13,0-.03.05-.02.08-.02-.02.08-.03.17-.05.25m2.29-6.27c0-.23.38-.72.56-1.01-.08.32-.39.65-.56,1.01m.71-1.27c0,.07-.06.22-.12.25-.03-.05.09-.17.12-.25m-.5.62h0Z"/><path class="cls-6" d="m16.32,64.06c0-.25.17-.77.19-1.14.06-.17,0-.18-.02,0-.06.13,0,.26-.06.3-.01,0-.03,0-.03.04.07.2-.24.81-.15,1.05.04-.12.02-.38.08-.24"/><path class="cls-3" d="m26.97,8.59c-4.11-1.92-7.18-.11-8.23,2.13-1.25,2.68-1.39,7.27,4.06,12.39-.2-1.9.8-2.61,3.11-3.32,2.27-.7,3.66-1.26,4.72-3.53,1.1-2.35.45-5.75-3.66-7.67"/><path class="cls-4" d="m32.22,36.39c3.72-2.6,3.69-6.17,2.27-8.19-1.7-2.42-5.61-4.84-12.76-2.68,1.75.78,1.86,1.99,1.32,4.36-.53,2.31-.73,3.8.7,5.85,1.49,2.13,4.75,3.27,8.47.67"/><path class="cls-8" d="m5.58,27.09c.4,4.52,3.5,6.28,5.96,6.06,2.95-.26,6.99-2.44,8.7-9.71-1.55,1.12-2.65.61-4.43-1.03-1.74-1.61-2.92-2.54-5.42-2.32-2.59.22-5.21,2.48-4.81,7.01"/><path class="cls-7" d="m31.65,42.65c-.22.12-.42.24-.44.24-.11.02-.6.3-.77.45-.04.03-.09.1-.11.14-.02.04-.06.13-.09.2-.05.09-.04.11,0,.1.05-.01.05,0,0,.08-.06.09-.07.1-.1.08-.02,0-.05,0-.07.02-.06.04-.02.05.16.04.09,0,.15,0,.13,0-.05.06-.16.09-.28.09-.07,0-.14,0-.16.02-.02,0-.04.06-.05.1v.08s-.04-.06-.04-.06l-.03-.06-.24.13c-.13.07-.26.15-.29.18-.08.06-.18.24-.17.27.01.01-.02.06-.08.1-.05.04-.13.13-.18.19-.11.14-.46.43-.59.48-.09.04-.27.15-.39.24-.11.08-.08.14.04.07.07-.04.06-.02-.06.09-.12.11-.14.14-.13.18.01.04-.01.07-.13.18-.11.1-.13.13-.11.15.03.01.02.02-.05.05-.07.03-.09.05-.14.1-.05.05-.04.06.01.02.07-.04.09-.02.08.07,0,.05,0,.05.07-.01.04-.04.13-.13.2-.21.15-.17.19-.2.21-.18,0,0-.02.04-.05.07-.04.03-.11.11-.17.19-.13.16-.3.31-.44.36-.05.02-.13.07-.17.1-.04.04-.13.09-.19.11-.14.05-.2.11-.39.36-.1.14-.12.15-.29.28-.1.08-.22.16-.26.19-.04.03-.09.09-.12.12-.11.16-.45.49-.63.62-.11.07-.59.49-.62.53-.02.02-.03.06-.02.08,0,.05.15-.02.25-.12.03-.03.06-.04.08-.02.02.02.03.03.02.04,0,0-.1.12-.21.26-.14.17-.17.22-.11.15.05-.05.12-.12.16-.14.05-.04.04-.02-.04.07-.05.07-.14.17-.2.23-.14.15-.1.15.04,0,.08-.09.1-.11.07-.06-.02.03-.11.13-.18.22-.13.15-.13.15-.08.07.07-.11.03-.08-.27.27-.18.21-.24.28-.35.38-.07.07-.17.18-.23.25-.04.05-.07.09-.1.13l.09-.07c.05-.04.17-.14.27-.23.06-.05.12-.1.18-.16.1-.12.19-.24.29-.36.33-.41.45-.51.46-.5.02.02-.04.11-.14.21-.05.05-.08.09-.08.09,0,0-.04.06-.1.13-.06.06-.21.23-.32.36-.18.23-.21.25-.36.39-.09.08-.16.13-.17.13,0,0-.06.02-.1.07-.05.04-.07.06-.05.04.07-.09-.03-.03-.1.06-.09.13-.08.16.03.07.15-.11.1-.03-.1.22-.05.07-.1.13-.14.19,0,.05,0,.09,0,.12,0,.06.02.09.03.09,0,0,.02,0,.05-.04.02-.03.05-.06.06-.06,0,0,0,.04-.02.07-.01.02-.02.04-.03.05,0,0,0,.01,0,.01h0s-.05-.02-.08-.02c-.06-.02-.12-.03-.18-.05-.47-.11-.66-.07-.74-.06-.08.02-.07.03-.07.02.01,0,.05-.02.14-.03.09-.01.23-.01.42.02.09.02.21.04.31.07.06.01.12.03.17.05.02,0,.07.02.07.02h0s.02,0,.03-.02c0-.01.02-.01.02,0,0,0,0,.02,0,.02.03.01-.07-.02-.15-.04-.08-.02-.16-.04-.24-.07-.17-.04-.35-.07-.5-.07-.29,0-.33.09-.27.03.06-.05.16-.23.22-.42.06-.19.11-.41.13-.57,0-.02,0-.04.01-.06,0-.01,0,0,0,0h0s0,0,0,0c0,0,.02-.01.07-.01.05,0,.09,0,.08-.02,0-.03.05-.01.39-.05.14-.02.26-.04.26-.04,0,0-.05,0-.1-.02-.05,0-.09-.02-.09-.02,0,0,.25-.05.55-.13.31-.07.65-.17.77-.19.13-.03.43-.12.67-.19.52-.18.51-.19.46-.18-.02,0-.01,0,0-.02.03-.01.06-.01.08-.01.04,0,.23-.07.28-.11.06-.05.21-.11.27-.11.03,0,.08,0,.12-.03.03-.02.19-.07.34-.13.44-.16.68-.34.29-.21-.09.03-.17.05-.18.04-.01-.02.17-.1.48-.22.16-.06.38-.15.48-.2.11-.05.18-.07.19-.06,0,.01.04.01.07,0,.05-.01.01.03-.12.16-.1.1-.2.19-.22.19-.03.01-.09.09-.11.15,0,.02-.05.06-.1.08-.08.04-.18.13-.17.14,0,0,.08-.03.18-.08.24-.12.55-.21.36-.1-.07.04-.19.15-.19.17,0,0,.06-.01.12-.04.15-.07.32-.12.31-.1,0,.03.15-.03.9-.45,1.11-.63,1.81-1.06,2.8-1.67.12-.07.44-.28.7-.47.16-.11.32-.23.48-.35.13-.13.27-.26.4-.39.22-.22.75-.8,1.16-1.32.6-.76.87-1.21,1.12-1.6.24-.4.48-.77.76-1.45.24-.64.24-1.01.21-1.22-.03-.22-.08-.31-.15-.43-.04-.07-.15-.17-.23-.22-.31-.18-.64-.23-.98-.26-.35-.03-.74-.03-1.3.02-.13.01-.43.06-.66.1-.23.04-.31.06-.55.13-.24.08-.63.2-1.45.54-1.41.6-2.45,1.22-3.04,1.53-.64.34-1.28.75-1.56.93-.15.1-.47.32-.71.5-.24.18-.46.35-.5.37-.11.05-.57.39-.65.46-.03.03-.08.06-.1.07-.04,0-.12.06-.49.4-.36.33-.64.61-1,.97-.27.27-.36.37-.27.25.1-.12.08-.15-.02-.06q-.11.09-.02,0s.09-.09.1-.09c0,0,.06-.06.13-.14.07-.08.19-.21.27-.29.18-.17.48-.51.46-.53,0,0-.04.02-.08.06-.04.04-.14.13-.23.2-.09.07-.19.16-.22.2-.03.04-.06.06-.07.06,0,0,.03-.05.08-.1.05-.05.21-.22.36-.37.15-.15.32-.31.37-.35.14-.1.2-.16.15-.16-.03,0-.02,0,.05-.04.13-.07.27-.17.41-.31.13-.12.16-.17.04-.08-.04.03-.07.04-.08.04,0,0-.12.06-.25.16-.3.23-.22.13.22-.24.18-.15.37-.3.42-.35.08-.07.08-.07-.06,0-.17.1-.12.05.14-.14.18-.13.31-.24.17-.15-.14.09-.66.47-1.55,1.37-.55.58-.95,1.06-1.07,1.19-.24.27-.3.32-.1.08.27-.3.16-.22-.17.14-.17.19-.3.34-.31.34,0,0,.05-.08.13-.17.19-.21.54-.61.61-.69.03-.04.15-.17.27-.3.12-.13.49-.53.84-.88.35-.35.69-.64.73-.67.12-.09.08-.09-.06,0-.13.08-.47.34-1.07.92-.2.19-.35.35-.36.34,0,0,.13-.15.3-.32.17-.17.48-.47.69-.66.21-.19.31-.27.22-.19-.31.3-.1.11.35-.27.37-.31.48-.4.54-.47.08-.08.08-.08,0-.03-.05.04-.01,0,.1-.1.1-.09.18-.16.18-.17,0,0-.1.05-.22.12-.18.11-.29.18-.69.53-.27.24-.42.37-.35.3.11-.11.07-.09-.33.24-.58.48-1.1.95-.95.79.06-.06.11-.12.11-.14,0-.02.08-.1.19-.21.1-.1.24-.23.3-.29.13-.13.17-.22.05-.12-.04.04-.1.08-.13.09-.03.02-.23.2-.5.49-.51.53-1.16,1.31-1.24,1.38-.06.05.02-.06.47-.58.27-.3.52-.59.51-.6,0,0,.04-.07.11-.15.08-.08.13-.15.13-.16,0-.02-.02,0-.05.03-.35.37-.94,1.05-.99,1.1-.04.03-.16.16-.26.3-.11.14-.22.27-.25.31-.08.09-.05.03.37-.5.71-.84.85-.97,1.02-1.17.25-.28.6-.66.69-.75.04-.04.08-.1.09-.14.02-.07.03-.08.26-.29.21-.18.24-.21.18-.18-.04.02-.09.06-.12.09-.03.03-.07.05-.07.04,0,0,.06-.07.17-.16.1-.08.21-.18.25-.22.06-.06.06-.07,0-.03-.07.03-.06.02.08-.09.14-.1.15-.13.2-.21.05-.09.07-.12.29-.3.13-.1.29-.24.36-.3.1-.09.11-.11.08-.13-.04-.01-.03-.02.03-.05.04-.02.09-.05.1-.07.02-.02-.03,0-.11.03l-.13.07.18-.11c.34-.2.66-.42,1.21-.76.59-.37.89-.53.84-.53-.02,0-.15.07-.28.14-.2.11-.21.12-.08.04.13-.08.16-.1.13-.11-.04,0-.01-.02.13-.09.09-.05.3-.17.46-.26,1.24-.7,1.6-.81,1.69-.85.06-.02.29-.12.52-.22.28-.11.63-.25,1.07-.38.36-.11.73-.21.81-.23.08-.02.4-.11.71-.2.4-.1.59-.14.65-.14.06,0,.13-.02.33-.05.21-.04.52-.11,1.11-.17.39-.04.75-.04,1.11,0,.36.04.73.11,1.17.32.57.28.87.62,1.01.79.14.18.18.23.22.28.12.15.12.03-.16-.38-.13-.18-.26-.31-.25-.32,0,0,.14.1.32.33.18.23.4.6.5,1.01.11.41.12.84.08,1.19-.04.36-.13.66-.21.91-.12.34-.26.63-.29.71-.03.07-.21.42-.42.73-.21.31-.44.63-.52.74-.08.11-.23.32-.35.47-.12.15-.36.46-.54.69-.31.38-.33.4-.25.33.12-.1.06-.02-.09.12-.07.07-.23.26-.53.59-.57.64-.75.79-.78.76,0,0-.06.02-.11.07-.05.05-.58.57-1.21,1.12-.62.55-1.25,1.03-1.36,1.1-.45.32-1.52.99-1.62,1.05-.18.12-.11.1.12-.03.33-.19.34-.2.06-.02-.31.19-.34.24-.06.1.12-.07.17-.09.16-.06,0,.02,0,.02.03,0,.06-.04.13-.05.11,0-.01.03-.07.06-.29.17-.15.07-.37.18-.48.25-.11.06-.48.24-.81.39-.33.15-.62.27-.63.27-.01,0-.4.16-.82.32-.42.15-.89.3-1.04.34-.14.04-.35.1-.47.14-.12.04-.35.1-.51.14-.59.14-.74.16-.98.24-.14.04-.24.08-.24.08,0,0,.12,0,.73-.16.13-.03.26-.07.28-.06.02,0,.09-.02.14-.04.06-.02.22-.05.36-.07.14-.02.37-.06.51-.1.14-.04.27-.06.29-.06.02,0,.14-.02.27-.06.13-.04.3-.09.38-.11.12-.03.1-.02-.16.07-.65.22-1.1.34-1.47.42-.65.14-1.1.23-1.59.35-.42.09-.55.13-.23.08.14-.03-.59.16-1.28.17-.14,0-.36,0-.62-.05-.25-.06-.63-.17-.91-.51-.16-.2-.26-.46-.27-.66-.02-.21.02-.38.05-.53.12-.59.34-.96.56-1.34.41-.68.84-1.2,1.06-1.45.28-.32.41-.47.62-.74.15-.19.32-.39.4-.46.07-.07.17-.17.23-.23.08-.09.11-.11.15-.13.05-.02.07-.04.28-.25.2-.21.25-.25.39-.35.21-.15.69-.55.65-.55-.02,0-.14.08-.28.19l-.25.19.21-.19c.28-.24.47-.4.74-.6.14-.11.21-.17.2-.17,0,0-.05.02-.1.06-.1.08-.12.08-.06,0,.05-.07-.04-.02-.21.12-.11.08-.14.11-.25.19-.02.02.08-.08.23-.21.15-.13.35-.3.45-.36.09-.07.3-.21.46-.32.31-.22.41-.3.25-.21-.17.09,0-.03.25-.17.2-.11.56-.29.75-.38.12-.06.46-.23.49-.25.02-.01.03-.04.02-.06,0-.04,0-.04.13-.11.08-.04.22-.13.33-.2.11-.07.23-.14.26-.15.04-.01.15-.07.26-.12.11-.05.19-.08.17-.06-.01.01.02.01.07,0,.16-.04.11.02-.26.29-.12.09-.16.12-.13.12.02,0,.02.01-.01.04-.1.06-.04.05.14-.03l.18-.08-.27.19c-.15.1-.33.22-.41.26-.28.15-.29.19-.02.06.15-.07.29-.14.31-.15.02-.01.1-.05.19-.08.12-.04.2-.09.42-.22.15-.1.32-.2.38-.23.09-.05.1-.06.06-.07-.04-.01-.03-.01.13-.07.12-.04.2-.08.26-.12.05-.03.1-.06.12-.07.02,0,.12-.06.23-.13.24-.15.61-.32.54-.24-.03.03-.2.14-.38.26-.18.11-.37.25-.42.29-.05.04-.16.13-.24.19-.13.09-.16.11-.15.15,0,.05.15,0,.32-.09l.12-.08-.11.08c-.06.04-.11.1-.12.11,0,.02,0,0,.07-.04.04-.04.12-.09.16-.12.04-.03.06-.06.04-.05-.06.01.52-.32.59-.34.03,0,.23-.11.45-.22.53-.28.57-.28.09,0"/><path class="cls-7" d="m25.51,45.67s-.11.08-.15.11c-.05.05-.04.04.05-.01.07-.04.14-.09.16-.1.06-.05.02-.05-.06,0"/><path class="cls-7" d="m23.74,50.4c-.14.14-.14.15,0,.04.06-.05.13-.11.17-.17.08-.1.02-.06-.16.13"/><path class="cls-7" d="m23.36,50.56c.13,0,.47-.1.51-.13.04-.03-.62.08-.7.11-.04.02.05.03.19.02"/><path class="cls-7" d="m25.29,43.17c-.16.11-.47.38-.46.39,0,0,.34-.22.46-.31.16-.13.16-.19,0-.08"/><path class="cls-7" d="m24.04,43.37c-.17.15-.31.28-.32.3,0,.01.03,0,.09-.04.09-.05.15-.1.43-.36.32-.29.33-.29.21-.23-.07.04-.22.15-.42.33"/><path class="cls-7" d="m30.46,42.39c-.16.1-.27.14-.16.06.04-.03.12-.08.19-.1l.12-.05-.15.1Z"/><path class="cls-7" d="m29.59,42.64s-.05.02-.06,0c0-.01,0-.03.04-.05.03-.01.06-.02.07,0,0,0-.01.03-.04.05"/><path class="cls-7" d="m29.79,43.18c-.13.09-.24.13-.38.16-.15.03-.11-.01.05-.05.07-.02.18-.07.27-.12.17-.1.23-.09.07.02"/><path class="cls-7" d="m29.25,42.87s-.14.07-.24.11c-.1.04-.19.08-.21.1-.01.02,0,.02.04,0,.11-.04.09,0-.02.04-.12.05-.18.09-.13.09.06,0,.02.02-.2.12-.16.07-.23.11-.43.27-.19.14-.26.18-.29.18-.05,0-.03-.02.13-.14.07-.05.21-.16.31-.25.15-.12.21-.16.31-.22.07-.04.23-.11.35-.18.12-.07.27-.13.32-.15.11-.04.14-.03.06.03"/><path class="cls-7" d="m29.78,44.4s-.02-.01-.01-.02c.01-.01.03-.01.03,0,0,.01,0,.03-.02.03"/><path class="cls-7" d="m24.01,50.35s-.08.1-.12.15c-.05.05-.04.03.04-.06.12-.15.17-.2.09-.09"/><path class="cls-7" d="m23.57,51.05s-.03.03-.03,0c0-.02.01-.04.02-.05,0,0,.02-.01.02,0,0,0,0,.03-.02.05"/><path class="cls-7" d="m23.42,51.17s-.04.06-.06.08c-.03.03-.03.01.02-.05.07-.09.09-.1.05-.03"/><path class="cls-7" d="m24.96,44.08c-.26.25-.75.7-1.26,1.24-.14.15-.2.21-.14.13q.1-.12,0-.03c-.12.11.52-.59.67-.71.06-.05.3-.28.54-.5.15-.13.3-.26.45-.39-.09.09-.18.17-.27.26"/><path class="cls-7" d="m23.69,44.08c-.06.05-.08.08-.05.05.02-.03.07-.08.1-.1.03-.02.01,0-.05.06"/><path class="cls-7" d="m23.31,45.74s-.11.12-.15.16q-.08.08-.01,0s.11-.12.15-.16q.08-.08,0,0"/><path class="cls-7" d="m22.47,45.09c-.05.06-.11.13-.15.16-.05.05-.04.03.03-.07.09-.13.17-.21.19-.2,0,0-.03.05-.07.11"/><path class="cls-7" d="m21.98,45.56c-.17.21-.33.42-.36.45-.07.07-.02,0,.45-.56.21-.25.21-.24-.08.11"/><path class="cls-7" d="m22.73,46.4s-.05.06-.03.02c.02-.03.05-.07.07-.08.01-.01,0,.02-.04.06"/><path class="cls-7" d="m21.86,46.41s-.04.05-.06.06c-.02.01,0-.01.03-.05.06-.07.08-.08.04-.02"/><path class="cls-7" d="m21.08,46.74c-.08.12-.18.24-.17.19,0-.02.06-.09.12-.16.09-.11.1-.11.05-.03"/><path class="cls-7" d="m18.9,51.52s-.03.07-.03.05c0-.02,0-.06.01-.09.01-.03.02-.05.03-.05,0,0,0,.04-.02.09"/><path class="cls-7" d="m18.67,54.31s-.02.06-.03.05c0,0,0-.03,0-.06,0-.03.02-.05.02-.05,0,0,0,.03,0,.06"/></g></svg>